SplineFontDB: 3.2
FontName: Orelega-Bold
FullName: Orelega Bold
FamilyName: Orelega
Weight: Bold
Copyright: Copyright (c) 2019 UkiyoMoji Fonts
UComments: "2019-10-17: Created with FontForge (http://fontforge.org)"
Version: 001.000
ItalicAngle: 0
UnderlinePosition: -160
UnderlineWidth: 160
Ascent: 3296
Descent: 800
InvalidEm: 0
LayerCount: 2
Layer: 0 0 "+gMyXYgAA" 1
Layer: 1 0 "+Uk2XYgAA" 0
XUID: [1021 734 -1507982095 5434]
StyleMap: 0x0020
FSType: 0
OS2Version: 0
OS2_WeightWidthSlopeOnly: 0
OS2_UseTypoMetrics: 1
CreationTime: 1571294646
ModificationTime: 1571309810
PfmFamily: 17
TTFWeight: 700
TTFWidth: 5
LineGap: 369
VLineGap: 0
OS2TypoAscent: 0
OS2TypoAOffset: 1
OS2TypoDescent: 0
OS2TypoDOffset: 1
OS2TypoLinegap: 369
OS2WinAscent: 0
OS2WinAOffset: 1
OS2WinDescent: 0
OS2WinDOffset: 1
HheadAscent: 0
HheadAOffset: 1
HheadDescent: 0
HheadDOffset: 1
OS2FamilyClass: 1025
OS2Vendor: 'Ukyo'
Lookup: 4 0 1 "'liga' +ahluljBuVAhbVwAA in +MOkwxjDzZYdbVwAA lookup 0" { "'liga' +ahluljBuVAhbVwAA in +MOkwxjDzZYdbVwAA lookup 0-1"  } ['liga' ('DFLT' <'dflt' > 'latn' <'dflt' > ) ]
Lookup: 5 0 0 "+X8WYCDBual+A/QAA in +MOkwxjDzZYdbVwAA lookup 1" { "+X8WYCDBual+A/QAA in +MOkwxjDzZYdbVwAA lookup 1-1"  } ['calt' ('DFLT' <'dflt' > 'latn' <'dflt' > ) ]
Lookup: 1 0 0 "Duck +ACIA-f+ACIA" { "Duck +ACIA-f+ACIA--1"  } []
MarkAttachClasses: 1
DEI: 91125
ContextSub2: class "+X8WYCDBual+A/QAA in +MOkwxjDzZYdbVwAA lookup 1-1" 3 3 3 2
  Class: 1 f
  Class: 142 germandbls longs f_dotlessi f_j f_h f_b f_k uniE106 uniE107 uniE108 uniE109 uniE10A uniE10B uniE10C uniE10D f_before_f f_f f_i f_l f_f_i f_f_l
  BClass: 1 f
  BClass: 142 germandbls longs f_dotlessi f_j f_h f_b f_k uniE106 uniE107 uniE108 uniE109 uniE10A uniE10B uniE10C uniE10D f_before_f f_f f_i f_l f_f_i f_f_l
  FClass: 1 f
  FClass: 142 germandbls longs f_dotlessi f_j f_h f_b f_k uniE106 uniE107 uniE108 uniE109 uniE10A uniE10B uniE10C uniE10D f_before_f f_f f_i f_l f_f_i f_f_l
 2 0 0
  ClsList: 1 1
  BClsList:
  FClsList:
 1

StartChar: exclam
Encoding: 33 33 1
Width: 800
VWidth: 0
Flags: HW
LayerCount: 2
Fore
SplineSet
80 300 m 0
 80 476.73046875 223.268554688 620 400 620 c 0
 576.731445312 620 720 476.73046875 720 300 c 0
 720 123.268554688 576.731445312 -20 400 -20 c 0
 223.268554688 -20 80 123.268554688 80 300 c 0
400 2560 m 0
 576.731445312 2560 720 2416.73144531 720 2240 c 0
 720 1928.62988281 579.838867188 1303.12597656 483.6796875 960 c 1
 316.3203125 960 l 1
 220.161132812 1303.12597656 80 1928.62988281 80 2240 c 0
 80 2416.73144531 223.268554688 2560 400 2560 c 0
EndSplineSet
EndChar

StartChar: numbersign
Encoding: 35 35 3
Width: 2240
VWidth: 0
Flags: HW
LayerCount: 2
Fore
SplineSet
599.99609375 2480 m 1
 999.997070312 2480 l 1
 759.998046875 0 l 1
 359.997070312 0 l 1
 599.99609375 2480 l 1
1479.99609375 2480 m 1
 1879.99707031 2480 l 1
 1639.99804688 0 l 1
 1239.99804688 0 l 1
 1479.99609375 2480 l 1
2160 1960 m 1
 2160 1640 l 1
 80 1640 l 1
 80 1960 l 1
 2160 1960 l 1
2160 840 m 1
 2160 520 l 1
 80 520 l 1
 80 840 l 1
 2160 840 l 1
EndSplineSet
EndChar

StartChar: dollar
Encoding: 36 36 4
Width: 2120
VWidth: 0
Flags: HW
LayerCount: 2
Fore
SplineSet
760 1920 m 4
 760 1321.78417969 2032 1553.953125 2040 720 c 4
 2044.22363281 279.850585938 1640 -40 1080 -40 c 4
 720 -40 80 131.478515625 80 640 c 5
 400 640 l 5
 400 400 640 280 960 280 c 4
 1240 280 1400 360 1400 560 c 4
 1400 1158.21386719 128 926.045898438 120 1760 c 4
 115.776367188 2200.14941406 480 2520 1040 2520 c 4
 1400 2520 2000 2348.52148438 2000 1840 c 5
 1680 1840 l 5
 1680 2080 1480 2200 1160 2200 c 4
 880 2200 760 2120 760 1920 c 4
720 640 m 4
 720 463.268554688 576.731445312 320 400 320 c 4
 223.268554688 320 80 463.268554688 80 640 c 4
 80 816.731445312 223.268554688 960 400 960 c 4
 576.731445312 960 720 816.731445312 720 640 c 4
1360 1840 m 4
 1360 2016.73144531 1503.26855469 2160 1680 2160 c 4
 1856.73144531 2160 2000 2016.73144531 2000 1840 c 4
 2000 1663.26855469 1856.73144531 1520 1680 1520 c 4
 1503.26855469 1520 1360 1663.26855469 1360 1840 c 4
920 2640 m 5
 1240 2640 l 5
 1240 -160 l 5
 920 -160 l 5
 920 2640 l 5
EndSplineSet
EndChar

StartChar: ampersand
Encoding: 38 38 6
Width: 2776
VWidth: 0
Flags: HW
LayerCount: 2
Fore
SplineSet
1040 1920 m 4
 1048.65625 1639.98730469 1226.30566406 1354.78027344 1480 1080 c 4
 1769.91210938 765.9921875 2029.33984375 480 2200 480 c 4
 2258.68359375 480 2280 520 2280 720 c 5
 2600 720 l 5
 2600 560 l 6
 2600 287.497070312 2586.55175781 235.26953125 2520 120 c 4
 2450.71582031 0 2297.05859375 -44.0068359375 2120 -40 c 4
 1743.76757812 -31.4853515625 1393.32910156 322.79296875 1040 720 c 4
 679.59375 1125.16210938 480 1576.62890625 480 1920 c 4
 480 2240 576 2520 1096 2520 c 4
 1576 2520 1760 2360 1760 1960 c 5
 1280 2000 l 5
 1280 2160 1240 2200 1160 2200 c 4
 1080 2200 1033.8203125 2119.90429688 1040 1920 c 4
2040 1840 m 4
 2040 2016.73144531 2183.26855469 2160 2360 2160 c 4
 2536.73144531 2160 2680 2016.73144531 2680 1840 c 4
 2680 1663.26855469 2536.73144531 1520 2360 1520 c 4
 2183.26855469 1520 2040 1663.26855469 2040 1840 c 4
1280 2000 m 5
 1760 1960 l 5
 1760 1720 1562.94824219 1555.48730469 1320 1400 c 4
 1229.45800781 1342.05371094 924.852539062 1188.28417969 840 1160 c 4
 779.392578125 1139.79785156 720 1081.78808594 720 880 c 4
 720 600 911.564453125 320 1200 320 c 4
 1323.99609375 320 1491.33203125 379.10546875 1580.828125 480 c 4
 1664.20800781 573.997070312 1976.23242188 446.051757812 1800 252.1953125 c 4
 1644.68847656 81.3486328125 1367.88769531 -40 1040 -40 c 4
 340.059570312 -40 80 320 80 800 c 4
 80 1160 320 1420 560 1480 c 4
 880 1560 978.208007812 1654.80273438 1120 1720 c 4
 1245.89355469 1777.88671875 1280 1880 1280 2000 c 5
2637.12792969 2000 m 5
 2689.87988281 1908.63183594 2696 1807.36035156 2696 1708.39355469 c 4
 2696 1460.75 2473.16015625 1227.53417969 2160 1200 c 5
 2280 1040 2280 640 2040 480 c 5
 1720 680 l 5
 1880 760 1960 1120 1640 1200 c 5
 1640 1520 l 5
 2080 1520 l 6
 2290.40820312 1520 2452.37597656 1680 2360 1840 c 5
 2637.12792969 2000 l 5
EndSplineSet
EndChar

StartChar: quotesingle
Encoding: 39 39 7
Width: 720
VWidth: 0
Flags: HW
LayerCount: 2
Fore
SplineSet
360 2560 m 4
 514.639648438 2560 640 2434.63964844 640 2280 c 4
 640 2007.55078125 560 1600 480 1280 c 5
 240 1280 l 5
 160 1600 80 2007.55078125 80 2280 c 4
 80 2434.63964844 205.360351562 2560 360 2560 c 4
EndSplineSet
EndChar

StartChar: parenleft
Encoding: 40 40 8
Width: 1319
VWidth: 0
Flags: HW
LayerCount: 2
Fore
SplineSet
1239.9921875 -480 m 1
 1239.9921875 -800 l 1
 479.9921875 -800 80 144.647460938 80 920 c 0
 80 1695.35253906 479.9921875 2640 1239.9921875 2640 c 1
 1239.9921875 2320 l 1
 959.9921875 2323.76464844 760 1649.02050781 760 920 c 0
 760 190.979492188 959.9921875 -480 1239.9921875 -480 c 1
EndSplineSet
EndChar

StartChar: asterisk
Encoding: 42 42 10
Width: 2531
VWidth: 0
Flags: HW
LayerCount: 2
Fore
SplineSet
80.0667985285 1426.66915957 m 0
 80.0667985285 1621.07055663 239.612903106 1746.93320147 399.669159574 1746.93320147 c 0
 432.550462864 1746.93320147 466.006643333 1741.80139653 499 1731 c 0
 779.386865095 1639.35251335 951.911432671 1376.44275278 1180.19569317 1263.53764015 c 1
 1143.56816937 1515.64438597 946 1761.1261718 946 2056 c 0
 946 2233 1089 2376 1266 2376 c 0
 1443 2376 1586 2233 1586 2056 c 0
 1586 1761.32934453 1388.70399198 1515.98269106 1351.88024668 1264.0587473 c 1
 1579.79774388 1377.24966749 1753.04362771 1639.49322456 2033 1731 c 0
 2065.99335667 1741.80139653 2099.44953714 1746.93320147 2132.33084043 1746.93320147 c 0
 2292.10900145 1746.93320147 2451.83320335 1621.45465438 2451.83320335 1427.26209649 c 0
 2451.83320335 1292.48817877 2365.20494175 1167.2635226 2230 1123 c 0
 2143.60454267 1094.76070812 2055.88011962 1085.90868085 1968.50974594 1085.90868085 c 0
 1821.68724802 1085.90868085 1675.86456742 1110.90635336 1539.02851239 1110.90635336 c 0
 1493.03977453 1110.90635336 1448.06611261 1108.08276446 1404.41072449 1100.53764698 c 1
 1582.55665265 917.824159024 1886.71509621 835.606961732 2060 597 c 0
 2101.26994518 540.253825371 2121.12380872 474.531792993 2121.12380872 409.394677675 c 0
 2121.12380872 245.545073563 1983.44516361 88.8761912757 1801.39467768 88.8761912757 c 0
 1702.3866757 88.8761912757 1604.73005482 134.746174629 1542 221 c 0
 1368.71876918 459.601904212 1384.7434384 773.926168438 1266.00000005 999.695645965 c 1
 1147.25656142 773.926168512 1163.28123069 459.601904186 990 221 c 0
 927.269945185 134.746174629 829.613324301 88.8761912757 730.605322325 88.8761912757 c 0
 548.689762687 88.8761912757 410.876191276 245.522274231 410.876191276 409.394677675 c 0
 410.876191276 474.531792993 430.730054815 540.253825371 472 597 c 0
 645.283774746 835.605407112 949.439383814 917.823087676 1127.58579338 1100.53407552 c 1
 1083.89738868 1108.08187347 1038.86992302 1110.90635338 992.814616747 1110.90635338 c 0
 855.802108575 1110.90635338 709.692837931 1085.90868088 562.681062612 1085.90868088 c 0
 475.198054744 1085.90868088 387.395457284 1094.76070815 301 1123 c 0
 165.993356667 1167.19860347 80.0667985285 1292.12103128 80.0667985285 1426.66915957 c 0
EndSplineSet
EndChar

StartChar: plus
Encoding: 43 43 11
Width: 1680
VWidth: 0
Flags: HW
LayerCount: 2
Fore
SplineSet
680 2000 m 1
 1000 2000 l 1
 1000 1400 l 1
 1600 1400 l 1
 1600 1080 l 1
 1000 1080 l 1
 1000 480 l 1
 680 480 l 1
 680 1080 l 1
 80 1080 l 1
 80 1400 l 1
 680 1400 l 1
 680 2000 l 1
EndSplineSet
EndChar

StartChar: comma
Encoding: 44 44 12
Width: 800
VWidth: 0
Flags: HW
LayerCount: 2
Fore
SplineSet
400 620 m 0
 545 620 671 523 709 383 c 0
 723 332 729 281 729 229 c 0
 729 -107 454 -445 117 -640 c 1
 -28 -495 l 1
 269 -257 362 -151 366 -18 c 1
 204 0 80 137 80 300 c 0
 80 477 223 620 400 620 c 0
EndSplineSet
EndChar

StartChar: hyphen
Encoding: 45 45 13
Width: 1240
VWidth: 0
Flags: HW
LayerCount: 2
Fore
SplineSet
80 800 m 1
 80 1120 l 1
 1160 1120 l 1
 1160 800 l 1
 80 800 l 1
EndSplineSet
EndChar

StartChar: period
Encoding: 46 46 14
Width: 800
VWidth: 0
Flags: HW
LayerCount: 2
Fore
SplineSet
80 300 m 4
 80 476.73046875 223.268554688 620 400 620 c 4
 576.731445312 620 720 476.73046875 720 300 c 4
 720 123.268554688 576.731445312 -20 400 -20 c 4
 223.268554688 -20 80 123.268554688 80 300 c 4
EndSplineSet
EndChar

StartChar: slash
Encoding: 47 47 15
Width: 1961
VWidth: 0
Flags: HW
LayerCount: 2
Fore
SplineSet
1512 2480 m 5
 1881 2480 l 5
 450 0 l 5
 80 0 l 5
 1512 2480 l 5
EndSplineSet
EndChar

StartChar: zero
Encoding: 48 48 16
Width: 2240
VWidth: 0
Flags: HW
LayerCount: 2
Fore
SplineSet
1120 2520 m 3
 1694 2520 2160 2012 2160 1237 c 3
 2160 462 1694 -46 1120 -46 c 3
 546 -46 80 462 80 1237 c 3
 80 2012 546 2520 1120 2520 c 3
1120 2200 m 3
 895.979492188 2200 760 1966 760 1237 c 3
 760 508 896 274 1120 274 c 3
 1344 274 1480 522 1480 1237 c 3
 1480 1952 1344.02050781 2200 1120 2200 c 3
EndSplineSet
EndChar

StartChar: one
Encoding: 49 49 17
Width: 2240
VWidth: 0
Flags: HW
LayerCount: 2
Fore
SplineSet
960 2480 m 1
 1440 2480 l 5
 1440 320 l 1
 1840 320 l 1
 1840 0 l 1
 400 0 l 1
 400 320 l 1
 800 320 l 1
 800 1840 l 1
 400 1840 l 1
 400 2160 l 1
 480 2160 l 2
 680 2160 800 2203 960 2480 c 1
EndSplineSet
EndChar

StartChar: two
Encoding: 50 50 18
Width: 2240
VWidth: 0
Flags: HW
LayerCount: 2
Fore
SplineSet
200 1720 m 3
 200 1897 343 2040 520 2040 c 3
 697 2040 840 1897 840 1720 c 0
 840 1543 697 1400 520 1400 c 3
 343 1400 200 1543 200 1720 c 3
243 1560 m 0
 195 1643 173 1731 173 1820 c 0
 173 2169 522 2520 1080 2520 c 3
 1780 2520 2040 2160 2040 1800 c 3
 2040 1200 1520 1045 1200 800 c 0
 987 637 859 600 720 360 c 1
 480 133 l 1
 200 0 l 3
 200 520 680 880 1040 1160 c 0
 1265 1335 1360 1558 1360 1760 c 3
 1360 2040 1208 2200 920 2200 c 3
 725 2200 477 2042 477 1832 c 0
 477 1784 490 1732 520 1680 c 0
 243 1560 l 0
200 0 m 1
 520 360 l 1
 760 440 l 2
 835 465 919 480 1000 480 c 2
 1520 480 l 2
 1640 480 1680 681 1680 800 c 2
 1680 960 l 1
 2040 960 l 1
 2040 0 l 1
 200 0 l 1
EndSplineSet
EndChar

StartChar: three
Encoding: 51 51 19
Width: 2240
VWidth: 0
Flags: HW
LayerCount: 2
Fore
SplineSet
220 1720 m 0
 220 1897 363 2040 540 2040 c 0
 717 2040 860 1897 860 1720 c 0
 860 1543 717 1400 540 1400 c 0
 363 1400 220 1543 220 1720 c 0
263 1560 m 0
 215 1643 193 1731 193 1820 c 0
 193 2169 542 2520 1100 2520 c 0
 1800 2520 2020 2160 2020 1800 c 0
 2020 1400 1460 1200 1220 1200 c 1
 860 1400 l 1
 1260 1400 1340 1558 1340 1760 c 0
 1340 2040 1228 2200 940 2200 c 0
 745 2200 497 2042 497 1832 c 0
 497 1784 510 1732 540 1680 c 0
 263 1560 l 0
220 760 m 0
 220 937 363 1080 540 1080 c 0
 717 1080 860 937 860 760 c 0
 860 583 717 440 540 440 c 0
 363 440 220 583 220 760 c 0
263 920 m 0
 540 800 l 0
 510 748 497 696 497 648 c 0
 497 438 745 280 940 280 c 0
 1228 280 1380 440 1380 720 c 0
 1380 922 1260 1080 860 1080 c 1
 860 1400 l 1
 1220 1264 l 1
 1700 1264 2060 1080 2060 680 c 0
 2060 320 1800 -40 1100 -40 c 0
 542 -40 193 311 193 660 c 0
 193 749 215 837 263 920 c 0
EndSplineSet
EndChar

StartChar: four
Encoding: 52 52 20
Width: 2240
VWidth: 0
Flags: HW
LayerCount: 2
Fore
SplineSet
780 2480 m 1
 1420 2480 l 1
 1420 1840 1020 1400 460 960 c 1
 1140 960 l 1
 1140 1343 l 1
 1292 1493 1423 1669 1487 1840 c 1
 1780 1840 l 1
 1780 960 l 1
 2100 960 l 1
 2100 640 l 1
 1780 640 l 1
 1780 320 l 1
 2100 320 l 1
 2100 0 l 1
 740 0 l 1
 740 320 l 1
 1140 320 l 1
 1140 640 l 1
 140 640 l 1
 140 960 l 1
 620 1440 740 2040 780 2480 c 1
EndSplineSet
EndChar

StartChar: five
Encoding: 53 53 21
Width: 2240
VWidth: 0
Flags: HW
LayerCount: 2
Fore
SplineSet
214 760 m 0
 214 937 357 1080 534 1080 c 0
 711 1080 854 937 854 760 c 0
 854 583 711 440 534 440 c 0
 357 440 214 583 214 760 c 0
257 920 m 0
 534 800 l 0
 504 748 491 696 491 648 c 0
 491 438 739 280 934 280 c 3
 1222 280 1374 440 1374 720 c 3
 1374 1077 1243 1223 873 1223 c 0
 787 1223 688 1215 574 1200 c 1
 254 1280 l 1
 534 1440 l 1
 782 1529 1118 1569 1303 1569 c 3
 1823 1569 2054 1241 2054 760 c 3
 2054 400 1794 -40 1094 -40 c 3
 536 -40 187 311 187 660 c 0
 187 749 209 837 257 920 c 0
267 1278 m 1
 432 2480 l 1
 735 2438 l 1
 571 1237 l 1
 267 1278 l 1
614 2000 m 0
 432 2480 l 1
 734 2480 l 1
 894 2440 974 2400 1254 2400 c 0
 1534 2400 1754 2421 1974 2480 c 1
 2014 2360 l 1
 1894 2000 1574 1880 1254 1880 c 3
 1012 1880 774 1902 614 2000 c 0
EndSplineSet
EndChar

StartChar: six
Encoding: 54 54 22
Width: 2240
VWidth: 0
Flags: HW
LayerCount: 2
Fore
SplineSet
737 920 m 1
 680 1240 l 1
 757 1424 960 1560 1240 1560 c 0
 1744 1560 2120 1225 2120 760 c 0
 2120 400 1820 -40 1120 -40 c 1
 1120 280 l 1
 1408 280 1440 520 1440 800 c 0
 1440 1143 1280 1240 1080 1240 c 0
 940 1240 800 1102 737 920 c 1
1360 1920 m 0
 1360 2097 1503 2240 1680 2240 c 0
 1857 2240 2000 2097 2000 1920 c 0
 2000 1743 1857 1600 1680 1600 c 0
 1503 1600 1360 1743 1360 1920 c 0
2000 1920 m 1
 1480 2120 l 1
 1466 2160 1440 2200 1240 2200 c 3
 959.971679688 2200 760 1966 760 1237 c 0
 760 508 896 280 1120 280 c 1
 1120 -40 l 5
 386 -40 80 457 80 1237 c 0
 80 2007 546 2520 1120 2520 c 0
 1720 2520 2000 2280 2000 1920 c 1
EndSplineSet
EndChar

StartChar: seven
Encoding: 55 55 23
Width: 2240
VWidth: 0
Flags: HW
LayerCount: 2
Fore
SplineSet
220 2480 m 1
 2100 2480 l 1
 2100 2160 l 5
 1675.52953034 1677.64719356 1469.67411147 1336.29471882 1379.94627905 1024 c 4
 1318.56331064 810.358632095 1300 393.411867108 1300 0 c 5
 660 0 l 1
 660 788 963 1351 1652 2040 c 1
 1528 2014 1454 2000 1300 2000 c 2
 740 2000 l 2
 620 2000 580 1799 580 1680 c 2
 580 1520 l 1
 220 1520 l 1
 220 2480 l 1
EndSplineSet
EndChar

StartChar: eight
Encoding: 56 56 24
Width: 2240
VWidth: 0
Flags: HW
LayerCount: 2
Fore
SplineSet
820 1920 m 0
 820 1440 2100 1554.03808594 2100 720 c 3
 2100 239.983398438 1820 -40 1100 -40 c 0
 580 -40 140 91 140 600 c 1
 660 600 l 1
 660 360 860 280 1060 280 c 0
 1340 280 1460 360 1460 560 c 0
 1460 1158 188 926 180 1760 c 0
 176 2200 540 2520 1100 2520 c 0
 1620 2520 2020 2349 2020 1840 c 1
 1540 1840 l 1
 1540 2080 1380 2200 1140 2200 c 0
 940 2200 820 2120 820 1920 c 0
740 1200 m 0
 900 1080 l 0
 721 901 660 800 660 600 c 1
 140 600 l 1
 140 840 461 1125 740 1200 c 0
1540 1320 m 0
 1284 1424 l 0
 1460 1560 1540 1680 1540 1840 c 1
 2020 1840 l 1
 2020 1600 1740 1377 1540 1320 c 0
EndSplineSet
EndChar

StartChar: colon
Encoding: 58 58 26
Width: 800
VWidth: 0
Flags: HW
LayerCount: 2
Fore
SplineSet
80 1530 m 0
 80 1706.73144531 223.268554688 1850 400 1850 c 0
 576.731445312 1850 720 1706.73144531 720 1530 c 0
 720 1353.26855469 576.731445312 1210 400 1210 c 0
 223.268554688 1210 80 1353.26855469 80 1530 c 0
EndSplineSet
Refer: 14 46 S 1 0 0 1 0 0 2
EndChar

StartChar: semicolon
Encoding: 59 59 27
Width: 800
VWidth: 0
Flags: HW
LayerCount: 2
Fore
SplineSet
80 1530 m 0
 80 1706.73144531 223.268554688 1850 400 1850 c 0
 576.731445312 1850 720 1706.73144531 720 1530 c 0
 720 1353.26855469 576.731445312 1210 400 1210 c 0
 223.268554688 1210 80 1353.26855469 80 1530 c 0
EndSplineSet
Refer: 12 44 S 1 0 0 1 0 0 2
EndChar

StartChar: less
Encoding: 60 60 28
Width: 1680
VWidth: 0
Flags: HW
LayerCount: 2
Fore
SplineSet
1600 1987.14550781 m 5
 1600 1627.14550781 l 5
 840 1339.015625 l 6
 677.784179688 1277.51757812 482.65234375 1228.5859375 240 1208.00683594 c 5
 80 1147.48632812 l 5
 80 1427.14550781 l 5
 1600 1987.14550781 l 5
1600 492.854492188 m 5
 80 1052.85449219 l 5
 80 1332.51367188 l 5
 240 1271.99316406 l 5
 482.65234375 1251.4140625 677.784179688 1202.48242188 840 1140.984375 c 6
 1600 852.854492188 l 5
 1600 492.854492188 l 5
EndSplineSet
EndChar

StartChar: equal
Encoding: 61 61 29
Width: 1680
VWidth: 0
Flags: HW
LayerCount: 2
Fore
SplineSet
80 1760 m 5
 1600 1760 l 5
 1600 1440 l 5
 80 1440 l 5
 80 1760 l 5
80 1040 m 5
 1600 1040 l 5
 1600 720 l 5
 80 720 l 5
 80 1040 l 5
EndSplineSet
EndChar

StartChar: question
Encoding: 63 63 31
Width: 1920
VWidth: 0
Flags: HW
LayerCount: 2
Fore
SplineSet
80 1840 m 7
 80 2016.73144531 223.268554688 2160 400 2160 c 7
 576.731445312 2160 720 2016.73144531 720 1840 c 7
 720 1663.26855469 576.731445312 1520 400 1520 c 7
 223.268554688 1520 80 1663.26855469 80 1840 c 7
80 1840 m 4
 80 2240 360 2560 960 2560 c 7
 1560 2560 1840 2320 1840 1840 c 7
 1840 1200 1040 1160 1040 920 c 5
 840 920 l 5
 600 1320 1240 1520 1240 1840 c 7
 1240 2040 1120 2240 840 2240 c 4
 600 2240 400 2120 400 1840 c 4
 80 1840 l 4
640 300 m 4
 640 476.73046875 783.268554688 620 960 620 c 4
 1136.73144531 620 1280 476.73046875 1280 300 c 4
 1280 123.268554688 1136.73144531 -20 960 -20 c 4
 783.268554688 -20 640 123.268554688 640 300 c 4
EndSplineSet
EndChar

StartChar: at
Encoding: 64 64 32
Width: 3560
VWidth: 0
Flags: HW
LayerCount: 2
Fore
SplineSet
1507.9375 -40 m 0
 1032.08203125 -40 789.133789062 332.642578125 789.133789062 920.607421875 c 0
 789.133789062 1508.57128906 1126.44726562 1880.34765625 1586.24121094 1880.34765625 c 0
 1979.77636719 1880.34765625 2156.43847656 1637.43164062 2222.69628906 1545.07128906 c 1
 2240 920 l 1
 2195.52636719 907.857421875 l 1
 2175.65039062 1191.80761719 2052.12792969 1508.57128906 1780.95605469 1508.57128906 c 0
 1509.78320312 1508.57128906 1390.52636719 1282.67089844 1390.52636719 913.53515625 c 0
 1390.52636719 544.400390625 1570.83398438 320 1768.17871094 320 c 0
 1965.52441406 320 2080.52734375 484.765625 2198.36621094 744.580078125 c 1
 2205 726 l 5
 2212.6875 579.276367188 l 1
 2180.5625 320.000976562 1983.79394531 -40 1507.9375 -40 c 0
2414.859375 1840 m 1
 2680 1840 l 1
 2680 520 l 2
 2680 445.622070312 2720 320 2835.52636719 320 c 0
 2960 320 3160 520 3160 1120 c 1
 3160 1120 l 1
 3160 1914.0078125 2730.01367188 2320 1880 2320 c 0
 987.817382812 2320 400 1824.09472656 400 960 c 0
 400 -42.87109375 931.55078125 -480 1720 -480 c 3
 2034.31152344 -480 2370.71777344 -440 2440 -400 c 1
 2600 -677.127929688 l 1
 2404.11328125 -790.223632812 2120 -800 1720 -800 c 3
 769.08203125 -800 80 -197.12890625 80 960 c 0
 80 2015.90527344 852.182617188 2640 1880 2640 c 0
 2869.98632812 2640 3480 2085.9921875 3480 1120 c 0
 3480 146.736328125 2948.93554688 0 2680 0 c 0
 2280 0 2120 218.725585938 2120 480 c 2
 2120 1520 l 1
 2200 1520 l 1
 2414.859375 1840 l 1
2120 -400 m 0
 2120 -223.268554688 2263.26855469 -80 2440 -80 c 0
 2616.73144531 -80 2760 -223.268554688 2760 -400 c 0
 2760 -576.731445312 2616.73144531 -720 2440 -720 c 0
 2263.26855469 -720 2120 -576.731445312 2120 -400 c 0
EndSplineSet
EndChar

StartChar: A
Encoding: 65 65 33
Width: 2960
VWidth: 0
Flags: HW
HStem: 0 320<80 340.867 740.867 1360 1600 1920 2637.02 2880> 640 320<800 2040> 2460 20G<1231.67 1688.86>
AnchorPoint: "ogonek" 2640 80 basechar 0
AnchorPoint: "cedilla" 1464 80 basechar 0
AnchorPoint: "top" 1460 2560 basechar 0
LayerCount: 2
Fore
SplineSet
1240 2480 m 1
 1680 2480 l 1
 2637.015625 320 l 1
 2880 320 l 1
 2880 0 l 1
 1600 0 l 1
 1600 320 l 1
 1920 320 l 1
 1388.3203125 1520 l 2
 1362.89453125 1577.38476562 1328.171875 1675.40722656 1312.046875 1736.06640625 c 1
 1295.46289062 1676.16015625 1264.27050781 1577.38574219 1240.3828125 1520 c 2
 740.8671875 320 l 1
 1360 320 l 1
 1360 0 l 1
 80 0 l 1
 80 320 l 1
 340.8671875 320 l 1
 1240 2480 l 1
800 640 m 1
 800 960 l 1
 2040 960 l 1
 2040 640 l 1
 800 640 l 1
EndSplineSet
EndChar

StartChar: B
Encoding: 66 66 34
Width: 2600
VWidth: 0
Flags: HW
AnchorPoint: "cedilla" 1264 80 basechar 0
AnchorPoint: "top" 1260 2560 basechar 0
LayerCount: 2
Fore
SplineSet
727.546875 1280 m 1
 1220 1280 l 2
 1975.80371094 1280 2460 1160 2460 680 c 0
 2460 440 2371.90234375 274.795898438 2236 166.5234375 c 0
 2041.69628906 11.72265625 1820 0 1140 0 c 2
 100 0 l 1
 100 320 l 1
 1300 320 l 2
 1618.40332031 320 1740 400 1740 640 c 0
 1740 880 1611.00683594 960 1220 960 c 2
 727.546875 960 l 1
 727.546875 1280 l 1
420 2160 m 1
 1060 2160 l 1
 1060 320 l 1
 420 320 l 1
 420 2160 l 1
100 2480 m 1
 1140 2480 l 2
 1860 2480 2060 2424 2244 2240 c 0
 2362.75 2121.25 2420 1934.34082031 2420 1740 c 0
 2420 1358.06445312 1889.82226562 960 1220 960 c 1
 1220 1280 l 1
 1575.97753906 1280 1700 1460 1700 1720 c 0
 1700 2020 1631.9140625 2160 1300 2160 c 2
 100 2160 l 1
 100 2480 l 1
EndSplineSet
EndChar

StartChar: C
Encoding: 67 67 35
Width: 2620
VWidth: 0
Flags: HW
AnchorPoint: "cedilla" 1424 80 basechar 0
AnchorPoint: "top" 1420 2560 basechar 0
LayerCount: 2
Fore
SplineSet
1400 2520 m 0
 1758.11425781 2520 2041.02636719 2417.20019531 2240 2240 c 0
 2405.53613281 2092.578125 2480 1960 2480 1720 c 1
 2000 1800 l 1
 1918.875 2108.02539062 1728.71777344 2200 1440 2200 c 0
 1027.5 2200 800 1767.35546875 800 1240 c 0
 800 712.64453125 1080.59082031 280 1480 280 c 0
 1823.1640625 280 2111.49121094 575.583007812 2160 1000 c 1
 2480 920 l 1
 2373.03417969 398.53515625 2114.13378906 -40 1400 -40 c 0
 545.8828125 -40 80 600 80 1240 c 0
 80 1880 545.8828125 2520 1400 2520 c 0
1840 1720 m 0
 1840 1896.73144531 1983.26855469 2040 2160 2040 c 0
 2336.73144531 2040 2480 1896.73144531 2480 1720 c 0
 2480 1543.26855469 2336.73144531 1400 2160 1400 c 0
 1983.26855469 1400 1840 1543.26855469 1840 1720 c 0
EndSplineSet
EndChar

StartChar: D
Encoding: 68 68 36
Width: 2840
VWidth: 0
Flags: HW
AnchorPoint: "cedilla" 1384 80 basechar 0
AnchorPoint: "top" 1420 2560 basechar 0
LayerCount: 2
Fore
SplineSet
1380 0 m 2
 100 0 l 1
 100 320 l 1
 420 320 l 1
 420 2160 l 1
 100 2160 l 1
 100 2480 l 1
 1380 2480 l 2
 2260 2480 2740 1880 2740 1240 c 0
 2740 600 2260 0 1380 0 c 2
1380 320 m 2
 1806.03710938 320 2020 712.64453125 2020 1240 c 0
 2020 1767.35546875 1820 2160 1380 2160 c 2
 1060 2160 l 1
 1060 320 l 1
 1380 320 l 2
EndSplineSet
EndChar

StartChar: E
Encoding: 69 69 37
Width: 2440
VWidth: 0
Flags: HW
AnchorPoint: "ogonek" 2080 80 basechar 0
AnchorPoint: "cedilla" 1224 80 basechar 0
AnchorPoint: "top" 1220 2560 basechar 0
LayerCount: 2
Fore
SplineSet
100 2480 m 1
 2260 2480 l 1
 2260 1680 l 1
 1900 1680 l 1
 1900 1840 l 2
 1900 1959.25683594 1860 2160 1740 2160 c 2
 1060 2160 l 1
 1060 1280 l 1
 1420 1280 l 1
 1420 1640 l 1
 1740 1640 l 1
 1740 600 l 1
 1420 600 l 1
 1420 960 l 1
 1060 960 l 1
 1060 320 l 1
 1780 320 l 2
 1900 320 1940 520.743164062 1940 640 c 2
 1940 800 l 1
 2300 800 l 1
 2300 0 l 1
 100 0 l 1
 100 320 l 1
 420 320 l 1
 420 2160 l 1
 100 2160 l 1
 100 2480 l 1
EndSplineSet
EndChar

StartChar: F
Encoding: 70 70 38
Width: 2400
VWidth: 0
Flags: HW
AnchorPoint: "cedilla" 744 80 basechar 0
AnchorPoint: "top" 1220 2560 basechar 0
LayerCount: 2
Fore
SplineSet
1620 320 m 1
 1620 0 l 1
 100 0 l 1
 100 320 l 1
 420 320 l 1
 420 2160 l 1
 100 2160 l 1
 100 2480 l 1
 2260 2480 l 1
 2260 1680 l 1
 1900 1680 l 1
 1900 1840 l 2
 1900 1959.25683594 1860 2160 1740 2160 c 2
 1060 2160 l 1
 1060 1280 l 1
 1420 1280 l 1
 1420 1640 l 1
 1740 1640 l 1
 1740 600 l 1
 1420 600 l 1
 1420 960 l 1
 1060 960 l 1
 1060 320 l 1
 1620 320 l 1
EndSplineSet
EndChar

StartChar: G
Encoding: 71 71 39
Width: 2760
VWidth: 0
Flags: HW
AnchorPoint: "cedilla" 1424 80 basechar 0
AnchorPoint: "top" 1380 2560 basechar 0
LayerCount: 2
Fore
SplineSet
1379.99902344 2520 m 0
 1738.11328125 2520 2021.02539062 2417.20019531 2219.99902344 2240 c 0
 2385.53515625 2092.578125 2459.99902344 1960 2459.99902344 1720 c 1
 1979.99902344 1800 l 1
 1898.87402344 2108.02539062 1708.71679688 2200 1419.99902344 2200 c 0
 1007.49902344 2200 779.999023438 1767.35546875 779.999023438 1240 c 0
 779.999023438 712.64453125 1060.58984375 280 1459.99902344 280 c 0
 1803.1640625 280 1971.49121094 575.583007812 2020 1000 c 1
 2340 920 l 1
 2233.03417969 398.53515625 2094.1328125 -40 1379.99902344 -40 c 0
 525.881835938 -40 59.9990234375 600 59.9990234375 1240 c 0
 59.9990234375 1880 525.881835938 2520 1379.99902344 2520 c 0
1820 1720 m 0
 1820 1896.73144531 1963.26855469 2040 2140 2040 c 0
 2316.73144531 2040 2460 1896.73144531 2460 1720 c 0
 2460 1543.26855469 2316.73144531 1400 2140 1400 c 0
 1963.26855469 1400 1820 1543.26855469 1820 1720 c 0
1300 1280 m 1
 2660 1280 l 1
 2660 920 l 1
 2420 920 l 1
 2420 0 l 1
 2260 0 l 1
 1940 240 l 1
 1780 200 l 1
 1780 920 l 1
 1300 920 l 1
 1300 1280 l 1
EndSplineSet
EndChar

StartChar: H
Encoding: 72 72 40
Width: 3040
VWidth: 0
Flags: HW
AnchorPoint: "cedilla" 1504 80 basechar 0
AnchorPoint: "top" 1500 2560 basechar 0
LayerCount: 2
Fore
SplineSet
100 2480 m 1
 1380 2480 l 1
 1380 2160 l 1
 1060 2160 l 1
 1060 320 l 1
 1380 320 l 1
 1380 0 l 1
 100 0 l 1
 100 320 l 1
 420 320 l 1
 420 2160 l 1
 100 2160 l 1
 100 2480 l 1
1620 2480 m 1
 2900 2480 l 1
 2900 2160 l 1
 2580 2160 l 1
 2580 320 l 1
 2900 320 l 1
 2900 0 l 1
 1620 0 l 1
 1620 320 l 1
 1940 320 l 1
 1940 2160 l 1
 1620 2160 l 1
 1620 2480 l 1
980 1280 m 5
 2020 1280 l 5
 2020 960 l 5
 980 960 l 5
 980 1280 l 5
EndSplineSet
EndChar

StartChar: I
Encoding: 73 73 41
Width: 1520
VWidth: 0
Flags: HW
AnchorPoint: "ogonek" 1040 80 basechar 0
AnchorPoint: "cedilla" 744 80 basechar 0
AnchorPoint: "top" 740 2560 basechar 0
LayerCount: 2
Fore
SplineSet
100 2480 m 1
 1380 2480 l 1
 1380 2160 l 1
 1060 2160 l 1
 1060 320 l 1
 1380 320 l 1
 1380 0 l 1
 100 0 l 1
 100 320 l 1
 420 320 l 1
 420 2160 l 1
 100 2160 l 1
 100 2480 l 1
EndSplineSet
EndChar

StartChar: J
Encoding: 74 74 42
Width: 2300
VWidth: 0
Flags: HW
AnchorPoint: "cedilla" 984 80 basechar 0
AnchorPoint: "top" 1500 2560 basechar 0
LayerCount: 2
Fore
SplineSet
1200 2160 m 1
 1840 2160 l 1
 1840 760 l 2
 1842.78613281 268.901367188 1480 -40 920 -40 c 0
 560 -40 80 131.478515625 80 640 c 1
 400 640 l 1
 400 400 560 280 800 280 c 0
 1000 280 1200 440 1200 760 c 2
 1200 2160 l 1
720 640 m 0
 720 463.268554688 576.731445312 320 400 320 c 0
 223.268554688 320 80 463.268554688 80 640 c 0
 80 816.731445312 223.268554688 960 400 960 c 0
 576.731445312 960 720 816.731445312 720 640 c 0
800 2160 m 1
 800 2480 l 1
 2160 2480 l 1
 2160 2160 l 1
 800 2160 l 1
EndSplineSet
EndChar

StartChar: K
Encoding: 75 75 43
Width: 2940
VWidth: 0
Flags: HW
AnchorPoint: "cedilla" 1384 80 basechar 0
AnchorPoint: "top" 1500 2560 basechar 0
LayerCount: 2
Fore
SplineSet
1500 320 m 1
 2820 320 l 1
 2820 0 l 1
 1500 0 l 1
 1500 320 l 1
1660 2160 m 1
 1660 2480 l 1
 2780 2480 l 1
 2780 2160 l 1
 1660 2160 l 1
2019.37207031 2160 m 1
 2500 2174.10742188 l 1
 1540 1120 l 1
 1154.28515625 1210.1015625 l 1
 2019.37207031 2160 l 1
1154.28515625 1210.1015625 m 1
 1780 1410.1015625 l 1
 2543.09960938 320 l 1
 1780 316.256835938 l 1
 1154.28515625 1210.1015625 l 1
100 2480 m 1
 1380 2480 l 1
 1380 2160 l 1
 1060 2160 l 1
 1060 320 l 1
 1260 320 l 1
 1260 0 l 1
 100 0 l 1
 100 320 l 1
 420 320 l 1
 420 2160 l 1
 100 2160 l 1
 100 2480 l 1
EndSplineSet
EndChar

StartChar: L
Encoding: 76 76 44
Width: 2340
VWidth: 0
Flags: HW
AnchorPoint: "cedilla" 1224 80 basechar 0
AnchorPoint: "top" 780 2560 basechar 0
LayerCount: 2
Fore
SplineSet
100 2480 m 1
 1460 2480 l 1
 1460 2160 l 1
 1060 2160 l 1
 1060 320 l 1
 1700 320 l 2
 1820 320 1860 520.743164062 1860 640 c 2
 1860 960 l 1
 2220 960 l 1
 2220 0 l 1
 100 0 l 1
 100 320 l 1
 420 320 l 1
 420 2160 l 1
 100 2160 l 1
 100 2480 l 1
EndSplineSet
EndChar

StartChar: M
Encoding: 77 77 45
Width: 3440
VWidth: 0
Flags: HW
AnchorPoint: "cedilla" 1584 80 basechar 0
AnchorPoint: "top" 1660 2560 basechar 0
LayerCount: 2
Fore
SplineSet
100 2480 m 1
 1140 2480 l 1
 1758.4453125 1308.2109375 l 1
 2342.9296875 2480 l 1
 3300 2480 l 1
 3300 2160 l 1
 2980 2160 l 1
 2980 320 l 1
 3300 320 l 1
 3300 0 l 1
 2020 0 l 1
 2020 320 l 1
 2340 320 l 1
 2340 1763.078125 l 1
 1700 480 l 1
 1500 480 l 1
 820 1768.421875 l 1
 820 320 l 1
 1140 320 l 1
 1140 0 l 1
 100 0 l 1
 100 320 l 1
 420 320 l 1
 420 2160 l 1
 100 2160 l 1
 100 2480 l 1
EndSplineSet
EndChar

StartChar: N
Encoding: 78 78 46
Width: 2840
VWidth: 0
Flags: HW
AnchorPoint: "cedilla" 1424 80 basechar 0
AnchorPoint: "top" 1420 2560 basechar 0
LayerCount: 2
Fore
SplineSet
100 2480 m 1
 990 2480 l 1
 2020 1268.234375 l 1
 2020 2160 l 1
 1700 2160 l 1
 1700 2480 l 1
 2740 2480 l 1
 2740 2160 l 1
 2420 2160 l 1
 2420 0 l 1
 2180 0 l 1
 820 1600 l 1
 820 320 l 1
 1140 320 l 1
 1140 0 l 1
 100 0 l 1
 100 320 l 1
 420 320 l 1
 420 2160 l 1
 100 2160 l 1
 100 2480 l 1
EndSplineSet
EndChar

StartChar: O
Encoding: 79 79 47
Width: 2800
VWidth: 0
Flags: HW
AnchorPoint: "ogonek" 1920 80 basechar 0
AnchorPoint: "cedilla" 1384 80 basechar 0
AnchorPoint: "top" 1380 2560 basechar 0
LayerCount: 2
Fore
SplineSet
1380 2520 m 0
 2234.1171875 2520 2700 1880 2700 1240 c 0
 2700 600 2234.1171875 -40 1380 -40 c 0
 525.8828125 -40 60 600 60 1240 c 0
 60 1880 525.8828125 2520 1380 2520 c 0
1380 2200 m 0
 967.5 2200 780 1767.35546875 780 1240 c 0
 780 712.64453125 980.590820312 280 1380 280 c 0
 1779.40917969 280 1980 712.64453125 1980 1240 c 0
 1980 1767.35546875 1792.5 2200 1380 2200 c 0
EndSplineSet
EndChar

StartChar: P
Encoding: 80 80 48
Width: 2540
VWidth: 0
Flags: HW
AnchorPoint: "cedilla" 744 80 basechar 0
AnchorPoint: "top" 1300 2560 basechar 0
LayerCount: 2
Fore
SplineSet
420 2160 m 1
 1060 2160 l 1
 1060 320 l 1
 420 320 l 1
 420 2160 l 1
100.00390625 2480 m 1
 1140 2480 l 2
 1860 2480 2060 2424 2244 2240 c 0
 2362.75195312 2121.25 2420 1934.34082031 2420 1740 c 0
 2420 1160 1889.82421875 960 1220 960 c 2
 1060 960 l 1
 1060 1280 l 1
 1220 1280 l 2
 1575.97558594 1280 1700 1460 1700 1720 c 0
 1700 1960 1620 2160 1300 2160 c 2
 100.00390625 2160 l 1
 100.00390625 2480 l 1
100.00390625 0 m 1
 100.00390625 320 l 1
 1460.00390625 320 l 1
 1460.00390625 0 l 1
 100.00390625 0 l 1
EndSplineSet
EndChar

StartChar: Q
Encoding: 81 81 49
Width: 2800
VWidth: 0
Flags: HW
AnchorPoint: "cedilla" 984 -400 basechar 0
AnchorPoint: "top" 1380 2560 basechar 0
LayerCount: 2
Fore
SplineSet
1380 2520 m 0
 2234.11621094 2520 2700 1880 2700 1240 c 0
 2700 600 2234.11621094 -40 1380 -40 c 0
 525.883789062 -40 60 600 60 1240 c 0
 60 1880 525.883789062 2520 1380 2520 c 0
1380 2200 m 0
 967.5 2200 780 1767.35546875 780 1240 c 0
 780 712.64453125 980.591796875 280 1380 280 c 0
 1779.40820312 280 1980 712.64453125 1980 1240 c 0
 1980 1767.35546875 1792.5 2200 1380 2200 c 0
2540.00390625 -320 m 0
 2540.00390625 -496.73046875 2396.73535156 -640 2220.00390625 -640 c 0
 2043.27246094 -640 1900.00390625 -496.73046875 1900.00390625 -320 c 0
 1900.00390625 -143.268554688 2043.27246094 0 2220.00390625 0 c 0
 2396.73535156 0 2540.00390625 -143.268554688 2540.00390625 -320 c 0
2446.27636719 -546.274414062 m 0
 2316.72363281 -675.82421875 2171.99609375 -800 1900 -800 c 0
 1300 -800 1420 -520 591.8515625 -520 c 1
 831.8515625 120 l 1
 1471.8515625 120 l 1
 1340 -320 l 1
 1541.4921875 -363.608398438 1580 -473.962890625 1820 -480 c 0
 1952.63183594 -483.3359375 2151.28027344 -484.930664062 2220 -320 c 0
 2446.27636719 -546.274414062 l 0
EndSplineSet
EndChar

StartChar: R
Encoding: 82 82 50
Width: 2760
VWidth: 0
Flags: HW
AnchorPoint: "cedilla" 1384 80 basechar 0
AnchorPoint: "top" 1340 2560 basechar 0
LayerCount: 2
Fore
SplineSet
420 2160 m 1
 1060 2160 l 1
 1060 320 l 1
 420 320 l 1
 420 2160 l 1
100 2480 m 1
 1140 2480 l 2
 1860 2480 2060 2424 2244 2240 c 0
 2362.75195312 2121.25 2420 1934.34082031 2420 1740 c 0
 2420 1160 1889.82421875 960 1220 960 c 2
 1060 960 l 1
 1060 1280 l 1
 1220 1280 l 2
 1575.97558594 1280 1700 1460 1700 1720 c 0
 1700 1960 1620 2160 1300 2160 c 2
 100 2160 l 1
 100 2480 l 1
100.00390625 0 m 1
 100.00390625 320 l 1
 1380.00390625 320 l 1
 1380.00390625 0 l 1
 100.00390625 0 l 1
1340 1240 m 0
 1780 1240 2100 1160 2180 640 c 0
 2211.01171875 438.411132812 2220 280 2287.5 280 c 0
 2380.59179688 280 2398.8515625 481.296875 2417.91210938 640 c 1
 2700 611.145507812 l 1
 2662.5 251.145507812 2625 -40 2175 -40 c 0
 1725 -40 1632.79589844 165.9375 1500 640 c 0
 1433.31152344 878.06640625 1380 960 1180 960 c 0
 1340 1240 l 0
EndSplineSet
EndChar

StartChar: S
Encoding: 83 83 51
Width: 2160
VWidth: 0
Flags: HW
AnchorPoint: "cedilla" 1064 80 basechar 0
AnchorPoint: "top" 1060 2560 basechar 0
LayerCount: 2
Fore
SplineSet
760 1920 m 0
 760 1322 2040 1554.03808594 2040 720 c 3
 2040 279.981445312 1640 -40 1080 -40 c 0
 720 -40 80 131 80 640 c 1
 400 640 l 1
 400 400 640 280 960 280 c 0
 1240 280 1400 360 1400 560 c 0
 1400 1158 120 925.961914062 120 1760 c 3
 120 2200.01855469 480 2520 1040 2520 c 0
 1400 2520 2000 2349 2000 1840 c 1
 1680 1840 l 1
 1680 2080 1480 2200 1160 2200 c 0
 880 2200 760 2120 760 1920 c 0
720 640 m 0
 720 463 577 320 400 320 c 0
 223 320 80 463 80 640 c 0
 80 817 223 960 400 960 c 0
 577 960 720 817 720 640 c 0
1360 1840 m 0
 1360 2017 1503 2160 1680 2160 c 0
 1857 2160 2000 2017 2000 1840 c 0
 2000 1663 1857 1520 1680 1520 c 0
 1503 1520 1360 1663 1360 1840 c 0
EndSplineSet
EndChar

StartChar: T
Encoding: 84 84 52
Width: 2520
VWidth: 0
Flags: HW
AnchorPoint: "cedilla" 1224 80 basechar 0
AnchorPoint: "top" 1260 2560 basechar 0
LayerCount: 2
Fore
SplineSet
80 2480 m 1
 2400 2480 l 1
 2400 1680 l 1
 2040 1680 l 1
 2040 1840 l 2
 2040 1959.25683594 2000 2160 1880 2160 c 2
 1560 2160 l 1
 1560 320 l 1
 1880 320 l 1
 1880 0 l 1
 600 0 l 1
 600 320 l 1
 920 320 l 1
 920 2160 l 1
 600 2160 l 2
 480 2160 440 1959.25683594 440 1840 c 2
 440 1680 l 1
 80 1680 l 1
 80 2480 l 1
EndSplineSet
EndChar

StartChar: U
Encoding: 85 85 53
Width: 2840
VWidth: 0
Flags: HW
AnchorPoint: "ogonek" 1920 80 basechar 0
AnchorPoint: "cedilla" 1504 80 basechar 0
AnchorPoint: "top" 1500 2560 basechar 0
LayerCount: 2
Fore
SplineSet
100 2480 m 1
 1380 2480 l 1
 1380 2160 l 1
 100 2160 l 1
 100 2480 l 1
1620 2480 m 1
 2700 2480 l 1
 2700 2160 l 1
 1620 2160 l 1
 1620 2480 l 1
2020 2160 m 1
 2340 2160 l 1
 2340 840 l 2
 2340 400 2100 -40 1500 -40 c 0
 740 -40 420 280 420 920 c 2
 420 2160 l 1
 1060 2160 l 1
 1060 920 l 2
 1060 392.64453125 1340 280 1540 280 c 0
 1860 280 2020 520 2020 840 c 2
 2020 2160 l 1
EndSplineSet
EndChar

StartChar: V
Encoding: 86 86 54
Width: 2920
VWidth: 0
Flags: HW
AnchorPoint: "cedilla" 1464 80 basechar 0
AnchorPoint: "top" 1500 2560 basechar 0
LayerCount: 2
Fore
SplineSet
60 2480 m 1
 1340 2480 l 1
 1340 2160 l 1
 60 2160 l 1
 60 2480 l 1
1740 2480 m 1
 2820 2480 l 1
 2820 2160 l 1
 1740 2160 l 1
 1740 2480 l 1
1500 1126.95800781 m 2
 1531.62792969 1052.70214844 1580 920 1620 760 c 1
 1660 920 1711.04394531 1058.97363281 1740 1126.95800781 c 2
 2180 2160 l 1
 2580 2160 l 1
 1660 0 l 1
 1220 0 l 1
 300 2160 l 1
 1060 2160 l 1
 1500 1126.95800781 l 2
EndSplineSet
EndChar

StartChar: W
Encoding: 87 87 55
Width: 4200
VWidth: 0
Flags: HW
AnchorPoint: "cedilla" 2104 80 basechar 0
AnchorPoint: "top" 2140 2560 basechar 0
LayerCount: 2
Fore
SplineSet
340 2160 m 1
 1100 2160 l 1
 1430 1127 l 2
 1454 1053 1490 920 1520 760 c 1
 1550 920 1588 1059 1610 1127 c 2
 1940 2160 l 1
 2580 2160 l 1
 2910 1127 l 2
 2934 1053 2970 920 3000 760 c 1
 3030 920 3068 1059 3090 1127 c 2
 3420 2160 l 1
 3820 2160 l 1
 3013 0 l 1
 2627 0 l 1
 2149 1280 l 2
 2120 1358 2093 1438 2080 1520 c 1
 2067 1438 2040 1358 2011 1280 c 2
 1533 0 l 1
 1147 0 l 1
 340 2160 l 1
1580 2480 m 1
 2860 2480 l 1
 2860 2160 l 1
 1580 2160 l 1
 1580 2480 l 1
3100 2480 m 1
 4100 2480 l 1
 4100 2160 l 1
 3100 2160 l 1
 3100 2480 l 1
60 2480 m 1
 1340 2480 l 1
 1340 2160 l 1
 60 2160 l 1
 60 2480 l 1
EndSplineSet
EndChar

StartChar: X
Encoding: 88 88 56
Width: 2880
VWidth: 0
Flags: HW
AnchorPoint: "cedilla" 1344 80 basechar 0
AnchorPoint: "top" 1500 2560 basechar 0
LayerCount: 2
Fore
SplineSet
80 2480 m 1
 1360 2480 l 1
 1360 2160 l 1
 80 2160 l 1
 80 2480 l 1
1680 2480 m 1
 2760 2480 l 1
 2760 2160 l 1
 1680 2160 l 1
 1680 2480 l 1
2760 0 m 1
 1480 0 l 1
 1480 320 l 1
 2760 320 l 1
 2760 0 l 1
1160 0 m 1
 80 0 l 1
 80 320 l 1
 1160 320 l 1
 1160 0 l 1
1734.828125 1440 m 1
 2549.37597656 320 l 1
 1758.015625 320 l 1
 1217.24414062 1063.5703125 l 1
 1734.828125 1440 l 1
2221.20214844 2348.21972656 m 1
 2479.99804688 2160.00488281 l 1
 1614.83007812 970.399414062 l 1
 1356.03417969 1158.61425781 l 1
 2221.20214844 2348.21972656 l 1
1134.54785156 1040 m 1
 320 2160 l 1
 1111.36035156 2160 l 1
 1652.13183594 1416.4296875 l 1
 1134.54785156 1040 l 1
618.793945312 131.790039062 m 1
 359.998046875 320.004882812 l 1
 1225.16601562 1509.61132812 l 1
 1483.96191406 1321.39550781 l 1
 618.793945312 131.790039062 l 1
EndSplineSet
EndChar

StartChar: Y
Encoding: 89 89 57
Width: 2880
VWidth: 0
Flags: HW
AnchorPoint: "ogonek" 1720 80 basechar 0
AnchorPoint: "cedilla" 1424 80 basechar 0
AnchorPoint: "top" 1500 2560 basechar 0
LayerCount: 2
Fore
SplineSet
80 2480 m 1
 1360 2480 l 1
 1360 2160 l 1
 80 2160 l 1
 80 2480 l 1
1680 2480 m 1
 2760 2480 l 1
 2760 2160 l 1
 1680 2160 l 1
 1680 2480 l 1
2221.20117188 2348.21875 m 1
 2479.99707031 2160.00390625 l 1
 1614.82910156 970.397460938 l 1
 1356.03320312 1158.61230469 l 1
 2221.20117188 2348.21875 l 1
1134.54785156 1040 m 1
 320 2160 l 1
 1111.36035156 2160 l 1
 1652.13183594 1416.4296875 l 1
 1134.54785156 1040 l 1
1076.03613281 1320 m 1
 1716.03613281 1320 l 1
 1716.03613281 320 l 1
 2036.03613281 320 l 1
 2036.03613281 0 l 1
 756.036132812 0 l 1
 756.036132812 320 l 1
 1076.03613281 320 l 1
 1076.03613281 1320 l 1
EndSplineSet
EndChar

StartChar: Z
Encoding: 90 90 58
Width: 2280
VWidth: 0
Flags: HW
AnchorPoint: "cedilla" 1144 80 basechar 0
AnchorPoint: "top" 1100 2560 basechar 0
LayerCount: 2
Fore
SplineSet
143.959960938 2480 m 1
 2100 2480 l 1
 2100 2240 l 1
 926.647460938 320 l 1
 1620 320 l 2
 1740 320 1780 520.743164062 1780 640 c 2
 1780 960 l 1
 2140 960 l 1
 2140 0 l 1
 100 0 l 1
 100 200 l 1
 1297.80371094 2160 l 1
 663.959960938 2160 l 2
 543.959960938 2160 503.959960938 1959.25683594 503.959960938 1840 c 2
 503.959960938 1680 l 1
 143.959960938 1680 l 1
 143.959960938 2480 l 1
EndSplineSet
EndChar

StartChar: bracketleft
Encoding: 91 91 59
Width: 1320
VWidth: 0
Flags: HW
LayerCount: 2
Fore
SplineSet
120 2640 m 1
 1240 2640 l 1
 1240 2320 l 1
 680 2320 l 1
 680 -480 l 1
 1240 -480 l 1
 1240 -800 l 1
 120 -800 l 1
 120 2640 l 1
EndSplineSet
EndChar

StartChar: backslash
Encoding: 92 92 60
Width: 1961
VWidth: 0
Flags: HW
LayerCount: 2
Fore
SplineSet
449 2480 m 5
 1881 0 l 5
 1511 0 l 5
 80 2480 l 5
 449 2480 l 5
EndSplineSet
EndChar

StartChar: a
Encoding: 97 97 62
Width: 2060
VWidth: 0
Flags: HW
AnchorPoint: "ogonek" 1760 80 basechar 0
AnchorPoint: "cedilla" 964 80 basechar 0
AnchorPoint: "top" 1000 1920 basechar 0
LayerCount: 2
Fore
SplineSet
134.287109375 1400 m 0
 134.287109375 1576.73144531 277.555664062 1720 454.287109375 1720 c 0
 631.017578125 1720 774.287109375 1576.73144531 774.287109375 1400 c 0
 774.287109375 1223.26855469 631.017578125 1080 454.287109375 1080 c 0
 277.555664062 1080 134.287109375 1223.26855469 134.287109375 1400 c 0
1368.57226562 658.286132812 m 0
 1277.14355469 514.931640625 l 0
 1210.32910156 613.315429688 1057.6640625 722.286132812 937.28125 722.286132812 c 0
 743.703125 722.286132812 678.857421875 658.286132812 678.857421875 521.142578125 c 1
 80 521.142578125 l 1
 80 795.428710938 317.143554688 1001.14257812 656.1875 1001.14257812 c 0
 1048.57226562 1001.14257812 1217.23242188 897.932617188 1368.57226562 658.286132812 c 0
1368.57226562 384 m 0
 1198.77539062 40.7109375 1048.57226562 -45.7138671875 656.1875 -45.7138671875 c 0
 317.143554688 -45.7138671875 80 196.661132812 80 521.142578125 c 1
 678.857421875 521.142578125 l 1
 678.857421875 363.921875 723.625 274.286132812 915.194335938 274.286132812 c 0
 1061.13378906 274.286132812 1225.94628906 421.872070312 1277.14355469 527.354492188 c 0
 1368.57226562 384 l 0
1780.00097656 1205.12304688 m 2
 1780.00097656 320 l 1
 1980.00097656 320 l 1
 1980.00097656 0 l 1
 1357.14355469 0 l 1
 1220.00097656 320 l 1
 1220.00097656 1263.68652344 l 2
 1220.00097656 1508.57128906 1078.51855469 1566.04101562 865.71484375 1566.04101562 c 0
 774.287109375 1566.04101562 682.858398438 1520 682.858398438 1458.87988281 c 1
 228.012695312 1626.27441406 l 1
 348.482421875 1758.72949219 541.853515625 1880 988.365234375 1880 c 0
 1434.87695312 1880 1780.00097656 1610.70507812 1780.00097656 1205.12304688 c 2
EndSplineSet
EndChar

StartChar: b
Encoding: 98 98 63
Width: 2250
VWidth: 0
Flags: HW
AnchorPoint: "cedilla" 1244 80 basechar 0
AnchorPoint: "top" 1160 2560 basechar 0
LayerCount: 2
Fore
SplineSet
80 2480 m 1
 840 2480 l 1
 840 320 l 1
 760 320 l 1
 545.142578125 0 l 1
 280 0 l 1
 280 2160 l 1
 80 2160 l 1
 80 2480 l 1
1452.0625 1880 m 0
 1927.91796875 1880 2170.86621094 1507.35742188 2170.86621094 919.392578125 c 0
 2170.86621094 331.428710938 1833.55273438 -40.34765625 1373.75878906 -40.34765625 c 0
 980.223632812 -40.34765625 803.561523438 202.568359375 737.303710938 294.928710938 c 1
 720 720 l 1
 764.473632812 932.142578125 l 1
 784.349609375 648.192382812 907.872070312 331.428710938 1179.04394531 331.428710938 c 0
 1450.21679688 331.428710938 1569.47363281 557.329101562 1569.47363281 926.46484375 c 0
 1569.47363281 1295.59960938 1389.16601562 1520 1191.82128906 1520 c 0
 994.475585938 1520 879.47265625 1355.234375 761.633789062 1095.41992188 c 1
 840 1520 l 1
 747.3125 1260.72363281 l 1
 779.4375 1519.99902344 976.206054688 1880 1452.0625 1880 c 0
EndSplineSet
EndChar

StartChar: ogonek
Encoding: 731 731 64
Width: 1120
VWidth: 0
Flags: HW
AnchorPoint: "ogonek" 520 80 mark 0
LayerCount: 2
Fore
SplineSet
400 -440 m 0
 400 -263 543 -120 720 -120 c 0
 897 -120 1040 -263 1040 -440 c 0
 1040 -617 897 -760 720 -760 c 0
 543 -760 400 -617 400 -440 c 0
440 -520 m 0
 946 -666 l 0
 866 -746 800 -800 560 -800 c 0
 280 -800 80 -679 80 -400 c 0
 80 -239 120 -120 240 80 c 1
 520 80 l 1
 440 -40 358 -239 360 -360 c 0
 361 -440 378 -560 440 -520 c 0
EndSplineSet
EndChar

StartChar: ring
Encoding: 730 730 65
Width: 1040
VWidth: 0
Flags: HW
AnchorPoint: "top" 520 1920 mark 0
LayerCount: 2
Fore
SplineSet
520 2840 m 0
 763 2840 960 2643 960 2400 c 0
 960 2400 l 0
 960 2157 763 1960 520 1960 c 0
 277 1960 80 2157 80 2400 c 0
 80 2643 277 2840 520 2840 c 2
 520 2840 l 0
520 2520 m 0
 454 2520 400 2466 400 2400 c 0
 400 2334 454 2280 520 2280 c 0
 586 2280 640 2334 640 2400 c 0
 640 2466 586 2520 520 2520 c 0
EndSplineSet
EndChar

StartChar: c
Encoding: 99 99 66
Width: 1994
VWidth: 0
Flags: HW
AnchorPoint: "cedilla" 1084 80 basechar 0
AnchorPoint: "top" 1000 1920 basechar 0
LayerCount: 2
Fore
SplineSet
1032.6171875 1880 m 0
 1467.47753906 1880.00195312 1713.79882812 1672.99707031 1871.4140625 1400 c 1
 1611.6875 1224.640625 l 1
 1491.87695312 1449.77050781 1363.59667969 1560 1102.1875 1560 c 0
 875.268554688 1560 674.2890625 1404.57128906 674.2890625 920 c 0
 674.2890625 435.428710938 893.08984375 292.040039062 1120 292.0390625 c 0
 1412.97851562 292.038085938 1548.79003906 409.447265625 1639.1953125 624.609375 c 1
 1905.2421875 533.1796875 l 1
 1788.51757812 213.1796875 1493.81738281 -40.001953125 1038.3359375 -40 c 0
 509.065429688 -39.998046875 80 339.78125 80 920 c 0
 80 1500.21875 503.346679688 1879.99804688 1032.6171875 1880 c 0
1274.2890625 1240 m 0
 1274.2890625 1416.73144531 1417.55761719 1560 1594.2890625 1560 c 0
 1771.02050781 1560 1914.2890625 1416.73144531 1914.2890625 1240 c 0
 1914.2890625 1063.26855469 1771.02050781 920 1594.2890625 920 c 0
 1417.55761719 920 1274.2890625 1063.26855469 1274.2890625 1240 c 0
EndSplineSet
EndChar

StartChar: cedilla
Encoding: 184 184 67
Width: 1337
VWidth: 0
Flags: HW
AnchorPoint: "cedilla" 804 80 mark 0
LayerCount: 2
Fore
SplineSet
80 -440 m 3
 80 -285 205 -160 360 -160 c 0
 515 -160 640 -285 640 -440 c 0
 640 -595 515 -720 360 -720 c 0
 205 -720 80 -595 80 -440 c 3
80 -440 m 0
 560 -480 l 0
 520 -540 600 -560 720 -560 c 0
 853 -560 883 -497 883 -440 c 0
 883 -385 838 -281 682 -280 c 1
 720 80 l 1
 920 80 l 1
 920 -80 l 1
 1120 -120 1260 -200 1260 -480 c 3
 1260 -669 1080 -800 760 -800 c 3
 223 -800 80 -640 80 -440 c 0
EndSplineSet
EndChar

StartChar: breve
Encoding: 728 728 68
Width: 1520
VWidth: 0
Flags: HW
AnchorPoint: "top" 760 1920 mark 0
LayerCount: 2
Fore
SplineSet
80 2520 m 2
 80 2640 l 1
 560 2640 l 1
 560 2520 l 2
 560 2320 600 2280 760 2280 c 1
 760 2000 l 1
 400 2000 80 2240 80 2520 c 2
1440 2520 m 2
 1440 2240 1120 2000 760 2000 c 1
 760 2280 l 1
 920 2280 960 2320 960 2520 c 2
 960 2640 l 1
 1440 2640 l 1
 1440 2520 l 2
EndSplineSet
EndChar

StartChar: d
Encoding: 100 100 69
Width: 2222
VWidth: 0
Flags: HW
AnchorPoint: "cedilla" 1124 80 basechar 0
AnchorPoint: "top" 1000 2560 basechar 0
LayerCount: 2
Fore
SplineSet
1182.29492188 2480 m 1
 1942.29492188 2480 l 1
 1942.29492188 320 l 1
 2142.29492188 320 l 1
 2142.29492188 0 l 1
 1548.00976562 0 l 1
 1382.29492188 320 l 1
 1382.29492188 2160 l 1
 1182.29492188 2160 l 1
 1182.29492188 2480 l 1
798.803710938 -45.7138671875 m 0
 322.947265625 -45.7138671875 80 332.643554688 80 920.607421875 c 0
 80 1508.57128906 394.114257812 1880.34863281 853.908203125 1880.34863281 c 0
 1247.44335938 1880.34863281 1376.83496094 1645.43164062 1443.09375 1553.07128906 c 1
 1694.29492188 1828.57128906 l 1
 1486.39355469 907.857421875 l 1
 1466.51660156 1191.80761719 1342.99414062 1508.57128906 1071.82128906 1508.57128906 c 0
 800.649414062 1508.57128906 681.392578125 1282.67089844 681.392578125 913.536132812 c 0
 681.392578125 544.400390625 861.700195312 320 1059.04492188 320 c 0
 1256.390625 320 1371.39355469 484.766601562 1489.23242188 744.581054688 c 1
 1942.29492188 320 l 1
 1554.66503906 579.27734375 l 1
 1532.55957031 400.872070312 1462.55859375 244.624023438 1338.6015625 132.977539062 c 0
 1214.64453125 21.3310546875 1036.73144531 -45.7138671875 798.803710938 -45.7138671875 c 0
EndSplineSet
EndChar

StartChar: tilde
Encoding: 732 732 70
Width: 1736
VWidth: 0
Flags: HW
AnchorPoint: "top" 870 1920 mark 0
LayerCount: 2
Fore
SplineSet
480 2632 m 0
 660 2632 782 2527 897 2430 c 0
 954 2382 1005 2341 1040 2326 c 0
 1057 2318 1069 2317 1076 2319 c 0
 1082 2320 1088 2323 1096 2333 c 0
 1096 2337 1096 2340 1096 2344 c 0
 1096 2498 1222 2624 1376 2624 c 0
 1530 2624 1656 2498 1656 2344 c 0
 1656 2236 1622 2144 1553 2080 c 0
 1484 2016 1383 1984 1256 1984 c 0
 1076 1984 954 2089 839 2186 c 0
 782 2234 731 2275 696 2290 c 0
 679 2298 667 2299 660 2297 c 0
 654 2296 648 2293 640 2283 c 0
 640 2279 640 2276 640 2272 c 0
 640 2118 514 1992 360 1992 c 0
 206 1992 80 2118 80 2272 c 0
 80 2380 114 2472 183 2536 c 0
 252 2600 353 2632 480 2632 c 0
EndSplineSet
EndChar

StartChar: e
Encoding: 101 101 71
Width: 2076
VWidth: 0
Flags: HW
AnchorPoint: "ogonek" 1520 80 basechar 0
AnchorPoint: "cedilla" 1084 80 basechar 0
AnchorPoint: "top" 1040 1920 basechar 0
LayerCount: 2
Fore
SplineSet
1996.66992188 907.96484375 m 0
 1402.38378906 907.96484375 l 0
 1402.38378906 1383.39257812 1266.91113281 1557.99414062 1040 1560 c 0
 813.08984375 1562.00585938 674.28515625 1392.53613281 674.28515625 907.96484375 c 0
 674.28515625 423.392578125 893.08984375 280.000976562 1120 280 c 0
 1412.97851562 279.999023438 1548.78613281 397.41015625 1639.19140625 612.571289062 c 1
 1905.24121094 521.142578125 l 1
 1788.51660156 201.142578125 1493.8125 -52.0380859375 1038.33007812 -52.03515625 c 0
 509.059570312 -52.033203125 80 327.745117188 80 907.96484375 c 0
 80 1488.18359375 509.059570312 1879.99804688 1038.33007812 1880 c 0
 1567.60449219 1880.00195312 1996.66992188 1488.1875 1996.66992188 907.96484375 c 0
379.919921875 1120 m 5
 1475.06542969 1120 l 5
 1996.66992188 907.96484375 l 5
 1971.97753906 800 l 5
 379.919921875 800 l 5
 379.919921875 1120 l 5
EndSplineSet
EndChar

StartChar: f
Encoding: 102 102 72
Width: 1600
VWidth: 0
Flags: HW
AnchorPoint: "cedilla" 644 80 basechar 0
AnchorPoint: "top" 1000 2720 basechar 0
LayerCount: 2
Fore
SplineSet
160 0 m 1
 160 320 l 1
 1360 320 l 1
 1360 0 l 1
 160 0 l 1
360 320 m 1
 360 1840 l 1
 920 1840 l 1
 920 320 l 1
 360 320 l 1
80 1520 m 1
 80 1840 l 1
 1520 1840 l 1
 1520 1520 l 1
 80 1520 l 1
1120 2280 m 0
 1120 2456.73144531 1263.26855469 2600 1440 2600 c 0
 1616.73144531 2600 1760 2456.73144531 1760 2280 c 0
 1760 2103.26953125 1616.73144531 1960 1440 1960 c 0
 1263.26855469 1960 1120 2103.26953125 1120 2280 c 0
1717.12792969 2440 m 0
 1520 2200 l 0
 1406.13964844 2290.72167969 1217.84179688 2320 1120 2320 c 0
 979.03125 2320 920 2160 920 1840 c 1
 360 1840 l 1
 360 2331.10644531 640 2640 1200 2640 c 0
 1480 2640 1649.15136719 2557.74023438 1717.12792969 2440 c 0
EndSplineSet
Substitution2: "Duck +ACIA-f+ACIA--1" f_before_f
EndChar

StartChar: g
Encoding: 103 103 73
Width: 2080
VWidth: 0
Flags: HW
AnchorPoint: "cedilla" 1004 -720 basechar 0
AnchorPoint: "top" 840 2240 basechar 0
LayerCount: 2
Fore
SplineSet
1000 1874.28613281 m 0
 1480 1874.28613281 1880 1680 1880 1280 c 0
 1880 840 1480 639.998046875 1000 640 c 0
 580.268554688 640.001953125 160.008789062 840 160.008789062 1280 c 0
 160.008789062 1720 560 1874.28613281 1000 1874.28613281 c 0
1020 1560 m 0
 835.31640625 1560.55078125 720 1451.80957031 720 1244.63769531 c 0
 720 1037.46582031 835.31640625 920 1020 920 c 0
 1204.68554688 920 1320 1041.375 1320 1244.63769531 c 0
 1320 1447.90039062 1204.68554688 1559.44921875 1020 1560 c 0
600 840 m 1
 960 680 l 1
 800 680 l 2
 600 680 520 600 520 560 c 0
 520 520 560 480 600 480 c 2
 1160 480 l 1
 1280 0 l 1
 600 0 l 2
 360 0 120 120 120 400 c 0
 120 640 320 840 600 840 c 1
1280 0 m 1
 1160 480 l 1
 1720 480 1960 333.169921875 1960 -40 c 0
 1960 -680 1400 -800 880 -800 c 0
 360 -800 80 -560 80 -280 c 0
 80 0 400 120 680 160 c 1
 880 80 l 1
 760 40 600 -40 600 -200 c 0
 600 -360 680 -400 960 -400 c 0
 1280 -400 1440 -320 1440 -160 c 0
 1440 -80 1360 0 1280 0 c 1
1320 2200 m 4
 1320 2376.73144531 1463.26855469 2520 1640 2520 c 4
 1816.73144531 2520 1960 2376.73144531 1960 2200 c 4
 1960 2023.26855469 1816.73144531 1880 1640 1880 c 4
 1463.26855469 1880 1320 2023.26855469 1320 2200 c 4
1722.82226562 2509.09667969 m 4
 1947.91113281 2448.78417969 2000 2285.03320312 2000 2097.04980469 c 4
 2000 1909.06640625 1824.09570312 1700.80273438 1688.81835938 1610.40136719 c 5
 1521.91699219 1750.94921875 l 5
 1640 1880 1700.10644531 2000.77148438 1640 2200 c 4
 1722.82226562 2509.09667969 l 4
EndSplineSet
EndChar

StartChar: h
Encoding: 104 104 74
Width: 2280
VWidth: 0
Flags: HW
AnchorPoint: "cedilla" 1124 80 basechar 0
AnchorPoint: "top" 1160 2560 basechar 0
LayerCount: 2
Fore
SplineSet
80 2480 m 1
 840 2480 l 1
 840 320 l 1
 1040 320 l 1
 1040 0 l 1
 80 0 l 1
 80 320 l 1
 280 320 l 1
 280 2160 l 1
 80 2160 l 1
 80 2480 l 1
1400 1880 m 0
 1875.85644531 1880 2000 1560 2000 1080 c 2
 2000 320 l 1
 2200 320 l 1
 2200 0 l 1
 1240 0 l 1
 1240 320 l 1
 1440 320 l 1
 1440 1120 l 2
 1440 1440 1360 1520 1184 1520 c 0
 1040 1520 879.471679688 1355.23632812 761.6328125 1095.421875 c 1
 747.3125 1260.7265625 l 1
 779.4375 1520.00292969 924.143554688 1880 1400 1880 c 0
EndSplineSet
EndChar

StartChar: uni0237
Encoding: 567 567 77
Width: 1000
VWidth: 0
Flags: HW
AnchorPoint: "top" 560 1920 basechar 0
LayerCount: 2
Fore
SplineSet
80 1840 m 1
 840 1840 l 1
 840 0 l 2
 840 -491.106445312 640 -800 80 -800 c 0
 -240.407226562 -800 -354.155273438 -729.856445312 -429.127929688 -600 c 1
 -240 -520 l 1
 -126.139648438 -610.721679688 62.158203125 -480 160 -480 c 0
 300.96875 -480 280 -320 280 0 c 2
 280 1520 l 1
 80 1520 l 1
 80 1840 l 1
168 -440 m 0
 168 -616.731445312 24.7314453125 -760 -152 -760 c 0
 -328.731445312 -760 -472 -616.731445312 -472 -440 c 0
 -472 -263.268554688 -328.731445312 -120 -152 -120 c 0
 24.7314453125 -120 168 -263.268554688 168 -440 c 0
EndSplineSet
EndChar

StartChar: dotlessi
Encoding: 305 305 78
Width: 1120
VWidth: 0
Flags: HW
AnchorPoint: "top" 560 1920 basechar 0
LayerCount: 2
Fore
SplineSet
80 1840 m 1
 840 1840 l 1
 840 320 l 1
 1040 320 l 1
 1040 0 l 1
 80 0 l 1
 80 320 l 1
 280 320 l 1
 280 1520 l 1
 80 1520 l 1
 80 1840 l 1
EndSplineSet
EndChar

StartChar: dotaccent
Encoding: 729 729 79
Width: 800
VWidth: 0
Flags: HW
AnchorPoint: "top" 400 1920 mark 0
LayerCount: 2
Fore
SplineSet
80 2280 m 0
 80 2457 223 2600 400 2600 c 0
 577 2600 720 2457 720 2280 c 0
 720 2103 577 1960 400 1960 c 4
 223 1960 80 2103 80 2280 c 0
EndSplineSet
EndChar

StartChar: k
Encoding: 107 107 80
Width: 2280
VWidth: 0
Flags: HW
AnchorPoint: "cedilla" 1124 80 basechar 0
AnchorPoint: "top" 1000 2560 basechar 0
LayerCount: 2
Fore
SplineSet
80 2480 m 1
 840 2480 l 1
 840 320 l 1
 1040 320 l 1
 1040 0 l 1
 80 0 l 1
 80 320 l 1
 280 320 l 1
 280 2160 l 1
 80 2160 l 1
 80 2480 l 1
1240 320 m 1
 2200 320 l 1
 2200 0 l 1
 1240 0 l 1
 1240 320 l 1
1200 1520 m 1
 1200 1840 l 1
 2160 1840 l 1
 2160 1520 l 1
 1200 1520 l 1
1648.57128906 1760 m 1
 2034.28515625 1669.890625 l 1
 1305.71484375 869.8984375 l 1
 920 960 l 1
 1648.57128906 1760 l 1
920 960 m 1
 1447.97558594 1160 l 1
 2120 200 l 1
 1452.01953125 200 l 1
 920 960 l 1
EndSplineSet
EndChar

StartChar: m
Encoding: 109 109 81
Width: 3440
VWidth: 0
Flags: HW
AnchorPoint: "cedilla" 1724 80 basechar 0
AnchorPoint: "top" 1720 1920 basechar 0
LayerCount: 2
Fore
SplineSet
80 1840 m 1
 700.713867188 1840 l 1
 845.7109375 1560 l 1
 840 320 l 1
 1040 320 l 1
 1040 0 l 1
 80 0 l 1
 80 320 l 1
 280 320 l 1
 280 1520 l 1
 80 1520 l 1
 80 1840 l 1
1400 1880 m 0
 1875.85644531 1880 2000 1560 2000 1080 c 2
 2000 320 l 1
 2200 320 l 1
 2200 0 l 1
 1240 0 l 1
 1240 320 l 1
 1440 320 l 1
 1440 1120 l 2
 1440 1440 1360 1520 1184 1520 c 0
 1040 1520 879.471679688 1355.23632812 761.6328125 1095.421875 c 1
 747.3125 1260.7265625 l 1
 779.4375 1520.00292969 924.143554688 1880 1400 1880 c 0
2560 1880 m 0
 3035.85644531 1880 3160 1560 3160 1080 c 2
 3160 320 l 1
 3360 320 l 1
 3360 0 l 1
 2400 0 l 1
 2400 320 l 1
 2600 320 l 1
 2600 1120 l 2
 2600 1440 2520 1520 2344 1520 c 0
 2200 1520 2039.47167969 1355.23632812 1921.6328125 1095.421875 c 1
 1907.3125 1260.7265625 l 1
 1939.4375 1520.00292969 2084.14355469 1880 2560 1880 c 0
EndSplineSet
EndChar

StartChar: o
Encoding: 111 111 82
Width: 2076
VWidth: 0
Flags: HW
AnchorPoint: "ogonek" 1480 80 basechar 0
AnchorPoint: "cedilla" 1044 80 basechar 0
AnchorPoint: "top" 1038.33 1914.29 basechar 0
LayerCount: 2
Fore
SplineSet
1038.33007812 1874.28613281 m 3
 1567.60449219 1874.28613281 1996.66992188 1494.50878906 1996.66992188 914.286132812 c 0
 1996.66992188 334.0625 1567.60449219 -45.7138671875 1038.33007812 -45.7138671875 c 3
 509.059570312 -45.7138671875 80 334.06640625 80 914.286132812 c 0
 80 1494.50488281 509.059570312 1874.28613281 1038.33007812 1874.28613281 c 3
1038.33007812 1554.28613281 m 3
 811.411132812 1554.28613281 674.28515625 1398.85742188 674.28515625 914.286132812 c 0
 674.28515625 429.71484375 811.419921875 274.286132812 1038.33007812 274.286132812 c 3
 1265.24121094 274.286132812 1402.38378906 438.857421875 1402.38378906 914.286132812 c 0
 1402.38378906 1389.71484375 1265.25 1554.28613281 1038.33007812 1554.28613281 c 3
EndSplineSet
EndChar

StartChar: acute
Encoding: 180 180 83
Width: 1060
VWidth: 0
Flags: HW
AnchorPoint: "top" 460 1920 mark 0
LayerCount: 2
Fore
SplineSet
99 2091 m 2
 579 2571 l 2
 623 2615 683 2640 745 2640 c 0
 875 2640 980 2535 980 2405 c 0
 980 2299 909 2206 806 2178 c 2
 150 2002 l 2
 146 2001 141 2000 136 2000 c 0
 107 2000 83 2024 83 2053 c 0
 83 2067 89 2081 99 2091 c 2
EndSplineSet
EndChar

StartChar: grave
Encoding: 96 96 84
Width: 1060
VWidth: 0
Flags: HW
AnchorPoint: "top" 600 1920 mark 0
LayerCount: 2
Fore
SplineSet
961 2091 m 2
 971 2081 977 2067 977 2053 c 0
 977 2024 953 2000 924 2000 c 0
 919 2000 914 2001 910 2002 c 2
 254 2178 l 2
 151 2206 80 2299 80 2405 c 0
 80 2535 185 2640 315 2640 c 0
 377 2640 437 2615 481 2571 c 2
 961 2091 l 2
EndSplineSet
EndChar

StartChar: p
Encoding: 112 112 85
Width: 2222
VWidth: 0
Flags: HW
AnchorPoint: "cedilla" 1444 80 basechar 0
AnchorPoint: "top" 1140 1920 basechar 0
LayerCount: 2
Fore
SplineSet
1040 -640 m 1
 80 -640 l 1
 80 -320 l 1
 280 -320 l 1
 280 1520 l 1
 80 1520 l 1
 80 1840 l 1
 674.28515625 1840 l 1
 840 1520 l 1
 840 -320 l 1
 1040 -320 l 1
 1040 -640 l 1
1423.49121094 1885.71386719 m 0
 1899.34765625 1885.71386719 2142.29492188 1507.35644531 2142.29492188 919.392578125 c 0
 2142.29492188 331.428710938 1828.18066406 -40.3486328125 1368.38671875 -40.3486328125 c 0
 974.8515625 -40.3486328125 845.459960938 194.568359375 779.201171875 286.928710938 c 1
 528 11.4287109375 l 1
 735.901367188 932.142578125 l 1
 755.778320312 648.192382812 879.30078125 331.428710938 1150.47363281 331.428710938 c 0
 1421.64550781 331.428710938 1540.90234375 557.329101562 1540.90234375 926.463867188 c 0
 1540.90234375 1295.59960938 1360.59472656 1520 1163.25 1520 c 0
 965.904296875 1520 850.901367188 1355.23339844 733.0625 1095.41992188 c 1
 280 1520 l 1
 667.629882812 1260.72363281 l 1
 689.735351562 1439.12792969 759.736328125 1595.37597656 883.693359375 1707.02246094 c 0
 1007.65039062 1818.66894531 1185.56347656 1885.71386719 1423.49121094 1885.71386719 c 0
EndSplineSet
EndChar

StartChar: q
Encoding: 113 113 86
Width: 2250
VWidth: 0
Flags: HW
AnchorPoint: "cedilla" 644 80 basechar 0
AnchorPoint: "top" 1100 1920 basechar 0
LayerCount: 2
Fore
SplineSet
1705.72558594 1840 m 1
 1970.86621094 1840 l 1
 1970.86621094 -320 l 1
 2170.86621094 -320 l 1
 2170.86621094 -640 l 1
 1210.86621094 -640 l 1
 1210.86621094 -320 l 1
 1410.86621094 -320 l 1
 1410.86621094 1520 l 1
 1490.86621094 1520 l 1
 1705.72558594 1840 l 1
798.803710938 -40 m 0
 322.948242188 -40 80 332.642578125 80 920.607421875 c 0
 80 1508.57128906 417.313476562 1880.34765625 877.107421875 1880.34765625 c 0
 1270.64257812 1880.34765625 1447.3046875 1637.43164062 1513.5625 1545.07128906 c 1
 1530.86621094 920 l 1
 1486.39257812 907.857421875 l 1
 1466.51660156 1191.80761719 1342.99414062 1508.57128906 1071.82226562 1508.57128906 c 0
 800.649414062 1508.57128906 681.392578125 1282.67089844 681.392578125 913.53515625 c 0
 681.392578125 544.400390625 861.700195312 320 1059.04492188 320 c 0
 1256.390625 320 1371.39355469 484.765625 1489.23242188 744.580078125 c 1
 1410.86621094 320 l 1
 1503.55371094 579.276367188 l 1
 1471.42871094 320.000976562 1274.66015625 -40 798.803710938 -40 c 0
EndSplineSet
EndChar

StartChar: r
Encoding: 114 114 87
Width: 1880
VWidth: 0
Flags: HW
AnchorPoint: "cedilla" 564 80 basechar 0
AnchorPoint: "top" 980 1920 basechar 0
LayerCount: 2
Fore
SplineSet
80 1840 m 1
 700.713867188 1840 l 1
 845.7109375 1560 l 1
 840 320 l 1
 1280 320 l 1
 1280 0 l 1
 80 0 l 1
 80 320 l 1
 280 320 l 1
 280 1520 l 1
 80 1520 l 1
 80 1840 l 1
1800 1400 m 0
 1191.17382812 1495.05859375 l 0
 1169.75683594 1511.32421875 1145.73828125 1520 1120 1520 c 0
 1019.15039062 1520 900.717773438 1371.74023438 800 1040 c 1
 680 1200 l 1
 760 1600 960 1880 1327.94726562 1880 c 0
 1622.36132812 1880 1800 1680 1800 1400 c 0
1160 1400 m 0
 1160 1576.73144531 1303.26855469 1720 1480 1720 c 0
 1656.73144531 1720 1800 1576.73144531 1800 1400 c 0
 1800 1223.26855469 1656.73144531 1080 1480 1080 c 0
 1303.26855469 1080 1160 1223.26855469 1160 1400 c 0
EndSplineSet
EndChar

StartChar: s
Encoding: 115 115 88
Width: 1720
VWidth: 0
Flags: HW
AnchorPoint: "cedilla" 884 80 basechar 0
AnchorPoint: "top" 860 1920 basechar 0
LayerCount: 2
Fore
SplineSet
1040 1440 m 0
 1040 1594.63964844 1165.36035156 1720 1320 1720 c 0
 1474.63964844 1720 1600 1594.63964844 1600 1440 c 0
 1600 1285.36035156 1474.63964844 1160 1320 1160 c 0
 1165.36035156 1160 1040 1285.36035156 1040 1440 c 0
80 400 m 0
 80 554.639648438 205.360351562 680 360 680 c 0
 514.639648438 680 640 554.639648438 640 400 c 0
 640 245.360351562 514.639648438 120 360 120 c 0
 205.360351562 120 80 245.360351562 80 400 c 0
80 400 m 1
 560 400 l 1
 600 330.715820312 640 280 800 280 c 0
 1080 280 1120 349.103515625 1120 480 c 0
 1120 880 120 600 120 1280 c 0
 120 1760 520 1840 917.587890625 1840 c 0
 1360 1840 1600 1640 1600 1440 c 1
 1120 1440 l 1
 1080 1509.28417969 1040 1560 880 1560 c 0
 708.040039062 1560 600 1530.89648438 600 1400 c 0
 600 1000 1640 1240 1640 560 c 0
 1640 80 1240 -40 762.412109375 -40 c 0
 360 -40 80 120 80 400 c 1
EndSplineSet
EndChar

StartChar: circumflex
Encoding: 710 710 89
Width: 1600
VWidth: 0
Flags: HW
AnchorPoint: "top" 801 1924 mark 0
LayerCount: 2
Fore
SplineSet
560 2640 m 1
 800 2640 l 1
 800 2480 l 1
 600 2000 l 1
 80 2000 l 1
 560 2640 l 1
1040 2640 m 1
 1520 2000 l 1
 1000 2000 l 1
 800 2480 l 1
 800 2640 l 1
 1040 2640 l 1
EndSplineSet
EndChar

StartChar: l
Encoding: 108 108 90
Width: 1120
VWidth: 0
Flags: W
HStem: 0 320<80 280 840 1040> 2160 320<80 280>
VStem: 280 560<320 2160>
AnchorPoint: "cedilla" 604 80 basechar 0
AnchorPoint: "top" 560 2560 basechar 0
LayerCount: 2
Fore
SplineSet
80 2480 m 1
 840 2480 l 1
 840 320 l 1
 1040 320 l 1
 1040 0 l 1
 80 0 l 1
 80 320 l 1
 280 320 l 1
 280 2160 l 1
 80 2160 l 1
 80 2480 l 1
EndSplineSet
EndChar

StartChar: n
Encoding: 110 110 91
Width: 2280
VWidth: 0
Flags: HW
AnchorPoint: "cedilla" 1124 80 basechar 0
AnchorPoint: "top" 1140 1920 basechar 0
LayerCount: 2
Fore
SplineSet
80 1840 m 1
 700.713867188 1840 l 1
 845.7109375 1560 l 1
 840 320 l 1
 1040 320 l 1
 1040 0 l 1
 80 0 l 1
 80 320 l 1
 280 320 l 1
 280 1520 l 1
 80 1520 l 1
 80 1840 l 1
1400 1880 m 0
 1875.85644531 1880 2000 1560 2000 1080 c 2
 2000 320 l 1
 2200 320 l 1
 2200 0 l 1
 1240 0 l 1
 1240 320 l 1
 1440 320 l 1
 1440 1120 l 2
 1440 1440 1360 1520 1184 1520 c 0
 1040 1520 879.471679688 1355.23632812 761.6328125 1095.421875 c 1
 747.3125 1260.7265625 l 1
 779.4375 1520.00292969 924.143554688 1880 1400 1880 c 0
EndSplineSet
EndChar

StartChar: t
Encoding: 116 116 92
Width: 1560
VWidth: 0
Flags: W
HStem: -40 360<858.876 1180.91> 1520 320<80 277.28 840 1400>
VStem: 280 560<339.094 1520> 1240 240<381.871 524.779>
AnchorPoint: "cedilla" 884 80 basechar 0
AnchorPoint: "top" 770 2320 basechar 0
LayerCount: 2
Fore
SplineSet
640 2240 m 1
 840 2240 l 1
 840 1840 l 1
 1400 1840 l 1
 1400 1520 l 1
 840 1520 l 1
 840 480 l 2
 840 400 880 320 1000 320 c 0
 1120 320 1216.5 400 1240 560 c 1
 1480 520 l 1
 1440 216.186523438 1257.26757812 -40 920 -40 c 0
 520 -40 280 160 280 480 c 2
 280 1520 l 1
 80 1520 l 1
 80 1840 l 1
 120 1840 l 2
 320 1840 463.188476562 1933.75292969 640 2240 c 1
EndSplineSet
EndChar

StartChar: dieresis
Encoding: 168 168 93
Width: 1760
VWidth: 0
Flags: HW
AnchorPoint: "top" 880 1920 mark 0
LayerCount: 2
Fore
SplineSet
400 2640 m 0
 576.639648438 2640 720 2496.63964844 720 2320 c 0
 720 2143.36035156 576.639648438 2000 400 2000 c 0
 223.360351562 2000 80 2143.36035156 80 2320 c 0
 80 2496.63964844 223.360351562 2640 400 2640 c 0
1360 2640 m 0
 1536.63964844 2640 1680 2496.63964844 1680 2320 c 0
 1680 2143.36035156 1536.63964844 2000 1360 2000 c 0
 1183.36035156 2000 1040 2143.36035156 1040 2320 c 0
 1040 2496.63964844 1183.36035156 2640 1360 2640 c 0
EndSplineSet
EndChar

StartChar: u
Encoding: 117 117 94
Width: 2280
VWidth: 0
Flags: HW
AnchorPoint: "ogonek" 2000 80 basechar 0
AnchorPoint: "cedilla" 1164 80 basechar 0
AnchorPoint: "top" 1130 1920 basechar 0
LayerCount: 2
Fore
SplineSet
80 1840 m 1
 840 1840 l 1
 840 720 l 2
 840 400 920 320 1096 320 c 0
 1208.56738281 320 1331.23144531 420.69140625 1435.7109375 588.7578125 c 1
 1440 1520 l 1
 1240 1520 l 1
 1240 1840 l 1
 2000 1840 l 1
 2000 320 l 1
 2200 320 l 1
 2200 0 l 1
 1579.2890625 0 l 1
 1438.671875 271.5390625 l 1
 1346.86621094 101.8203125 1178.66796875 -40 880 -40 c 0
 404.143554688 -40 280 280 280 760 c 2
 280 1520 l 1
 80 1520 l 1
 80 1840 l 1
EndSplineSet
EndChar

StartChar: v
Encoding: 118 118 95
Width: 2320
VWidth: 0
Flags: HW
AnchorPoint: "cedilla" 1164 80 basechar 0
AnchorPoint: "top" 1210 1920 basechar 0
LayerCount: 2
Fore
SplineSet
80 1840 m 1
 1200 1840 l 1
 1200 1520 l 1
 871.3125 1520 l 1
 1187.7578125 800 l 2
 1217.05859375 733.333984375 1256.62988281 630.291992188 1275.65625 560 c 1
 1294.92480469 630.225585938 1334.25488281 733.333984375 1363.5546875 800 c 2
 1680 1520 l 1
 1400 1520 l 1
 1400 1840 l 1
 2240 1840 l 1
 2240 1520 l 1
 2028.04003906 1520 l 1
 1360 0 l 1
 935.859375 0 l 1
 267.8203125 1520 l 1
 80 1520 l 1
 80 1840 l 1
EndSplineSet
EndChar

StartChar: w
Encoding: 119 119 96
Width: 3240
VWidth: 0
Flags: HW
AnchorPoint: "cedilla" 1644 80 basechar 0
AnchorPoint: "top" 1650 1920 basechar 0
LayerCount: 2
Fore
SplineSet
80 1840 m 1
 1200 1840 l 1
 1200 1520 l 1
 885.944335938 1520 l 1
 1155.3515625 800 l 2
 1180.29589844 733.333007812 1205.24414062 645.638671875 1230.18847656 549.953125 c 1
 1254.08789062 645.638671875 1277.984375 733.333984375 1301.88378906 800 c 2
 1560 1520 l 1
 1400 1520 l 1
 1400 1840 l 1
 2120 1840 l 1
 2120 1520 l 1
 1924.44433594 1520 l 1
 2193.84375 800 l 2
 2218.78808594 733.333007812 2243.73632812 645.638671875 2268.6796875 549.953125 c 1
 2292.58007812 645.638671875 2316.484375 733.333007812 2340.38378906 800 c 2
 2598.5 1520 l 1
 2320 1520 l 1
 2320 1840 l 1
 3160 1840 l 1
 3160 1520 l 1
 2948.04003906 1520 l 1
 2400 0 l 1
 1960 0 l 1
 1743.65625 600 l 2
 1716.015625 676.650390625 1688.37988281 769.984375 1660.74414062 880 c 1
 1633.10351562 769.984375 1605.46386719 676.651367188 1577.828125 600 c 2
 1361.5 0 l 1
 815.860351562 0 l 1
 267.8203125 1520 l 1
 80 1520 l 1
 80 1840 l 1
EndSplineSet
EndChar

StartChar: x
Encoding: 120 120 97
Width: 2280
VWidth: 0
Flags: HW
AnchorPoint: "cedilla" 1044 80 basechar 0
AnchorPoint: "top" 1130 1920 basechar 0
LayerCount: 2
Fore
SplineSet
1560 1520 m 1
 2000 1520 l 1
 1520 920 l 1
 2000 320 l 1
 1360 320 l 1
 880 920 l 1
 1080 920 l 1
 1560 1520 l 1
711.423828125 320 m 1
 271.423828125 320 l 1
 751.423828125 920 l 1
 271.423828125 1520 l 1
 911.423828125 1520 l 1
 1391.42382812 920 l 1
 1191.42382812 920 l 1
 711.423828125 320 l 1
1320 1520 m 1
 1320 1840 l 1
 2200 1840 l 1
 2200 1520 l 1
 1320 1520 l 1
1120 1520 m 1
 80 1520 l 1
 80 1840 l 1
 1120 1840 l 1
 1120 1520 l 1
960 320 m 1
 960 0 l 1
 80 0 l 1
 80 320 l 1
 960 320 l 1
1160 320 m 1
 2200 320 l 1
 2200 0 l 1
 1160 0 l 1
 1160 320 l 1
EndSplineSet
EndChar

StartChar: y
Encoding: 121 121 98
Width: 2320
VWidth: 0
Flags: HW
AnchorPoint: "ogonek" 1920 80 basechar 0
AnchorPoint: "cedilla" 1924 80 basechar 0
AnchorPoint: "top" 1130 1920 basechar 0
LayerCount: 2
Fore
SplineSet
720 -440 m 0
 720 -616.731445312 576.731445312 -760 400 -760 c 0
 223.268554688 -760 80 -616.731445312 80 -440 c 0
 80 -263.268554688 223.268554688 -120 400 -120 c 0
 576.731445312 -120 720 -263.268554688 720 -440 c 0
80 1840 m 1
 1200 1840 l 1
 1200 1520 l 1
 871.311523438 1520 l 1
 1187.75585938 800 l 2
 1217.05566406 733.333984375 1256.62792969 630.291992188 1275.65625 560 c 1
 1294.92382812 630.225585938 1334.25195312 733.333984375 1363.55566406 800 c 2
 1680 1520 l 1
 1400 1520 l 1
 1400 1840 l 1
 2240 1840 l 1
 2240 1520 l 1
 2028.04003906 1520 l 1
 1360 0 l 2
 1138.94824219 -502.963867188 955.956054688 -800 526.064453125 -800 c 0
 280.00390625 -800 187.704101562 -712.2890625 122.875976562 -600 c 1
 400 -440 l 1
 671.295898438 -456.5234375 l 1
 735.708007812 -562.073242188 821.379882812 -430.21484375 897.540039062 -256.921875 c 2
 973.15625 -84.8671875 l 1
 267.8203125 1520 l 1
 80 1520 l 1
 80 1840 l 1
EndSplineSet
EndChar

StartChar: z
Encoding: 122 122 99
Width: 1720
VWidth: 0
Flags: HW
AnchorPoint: "cedilla" 884 80 basechar 0
AnchorPoint: "top" 850 1920 basechar 0
LayerCount: 2
Fore
SplineSet
80 1840 m 1
 1640 1840 l 1
 1640 1656 l 1
 873.047851562 480 l 2
 838.263671875 426.666992188 799.32421875 377.653320312 752 320 c 1
 1320 320 l 1
 1320 800 l 1
 1640 800 l 1
 1640 0 l 1
 40 0 l 1
 40 184 l 1
 806.952148438 1360 l 2
 841.736328125 1413.33300781 886.3203125 1464.36425781 936 1520 c 1
 400 1520 l 1
 400 1040 l 1
 80 1040 l 1
 80 1840 l 1
EndSplineSet
EndChar

StartChar: macron
Encoding: 175 175 223
Width: 1240
VWidth: 0
Flags: HW
AnchorPoint: "top" 620 1920 mark 0
LayerCount: 2
Fore
SplineSet
80 2080 m 1
 80 2400 l 1
 1160 2400 l 1
 1160 2080 l 1
 80 2080 l 1
EndSplineSet
EndChar

StartChar: hungarumlaut
Encoding: 733 733 234
Width: 1933
VWidth: 0
Flags: HW
AnchorPoint: "top" 880 1920 mark 0
LayerCount: 2
Back
SplineSet
400 2640 m 4
 576.639648438 2640 720 2496.63964844 720 2320 c 4
 720 2143.36035156 576.639648438 2000 400 2000 c 4
 223.360351562 2000 80 2143.36035156 80 2320 c 4
 80 2496.63964844 223.360351562 2640 400 2640 c 4
1360 2640 m 4
 1536.63964844 2640 1680 2496.63964844 1680 2320 c 4
 1680 2143.36035156 1536.63964844 2000 1360 2000 c 4
 1183.36035156 2000 1040 2143.36035156 1040 2320 c 4
 1040 2496.63964844 1183.36035156 2640 1360 2640 c 4
EndSplineSet
Fore
SplineSet
1761.18261719 2756.70996094 m 0
 1876.10253906 2653.23535156 1885.38085938 2476.19238281 1781.90625 2361.27246094 c 0
 1599.60253906 2158.80273438 1428.03808594 2087.81933594 1207.99511719 2042.99511719 c 1
 1029.63964844 2123.5859375 l 1
 1130.77929688 2355.47167969 1183.44140625 2533.51660156 1365.74511719 2735.98535156 c 0
 1469.21972656 2850.90527344 1646.26269531 2860.18359375 1761.18261719 2756.70996094 c 0
801.182617188 2756.70996094 m 0
 916.102539062 2653.23535156 925.380859375 2476.19238281 821.90625 2361.27246094 c 0
 639.602539062 2158.80273438 468.038085938 2087.81933594 247.995117188 2042.99511719 c 1
 69.6396484375 2123.5859375 l 1
 170.779296875 2355.47167969 223.44140625 2533.51660156 405.745117188 2735.98535156 c 0
 509.219726562 2850.90527344 686.262695312 2860.18359375 801.182617188 2756.70996094 c 0
EndSplineSet
EndChar

StartChar: uni0326
Encoding: 806 806 246
Width: 0
VWidth: 0
Flags: HW
AnchorPoint: "cedilla" -316 80 mark 0
LayerCount: 2
Fore
SplineSet
-560 -320 m 0
 -560 -187.45 -452.548828125 -80 -320 -80 c 0
 -187.451171875 -80 -80 -187.451171875 -80 -320 c 0
 -80 -452.547851562 -187.451171875 -560 -320 -560 c 0
 -452.548828125 -560 -560 -452.55 -560 -320 c 0
-320 -80 m 0
 -107.64 -80 -50 -216.224609375 -50 -357.211914062 c 0
 -50 -658.200195312 -253.015968509 -800 -395 -800 c 3
 -442.650252676 -800 -489.916677374 -788.709021419 -532 -770 c 1
 -482 -625 l 1
 -457.520833333 -640.259048083 -433.150773285 -646.788085938 -408.5625 -646.788085938 c 3
 -357.180049341 -646.788085938 -288.1171875 -572.893554688 -288.1171875 -416.823242188 c 0
 -320 -80 l 0
EndSplineSet
EndChar

StartChar: longs
Encoding: 383 383 263
Width: 1520
VWidth: 0
Flags: HW
AnchorPoint: "cedilla" 644 80 basechar 0
AnchorPoint: "top" 1000 2720 basechar 0
LayerCount: 2
Fore
SplineSet
160 0 m 1
 160 320 l 1
 1360 320 l 1
 1360 0 l 1
 160 0 l 1
360 320 m 1
 360 1840 l 1
 920 1840 l 1
 920 320 l 1
 360 320 l 1
1120 2280 m 0
 1120 2456.73144531 1263.26855469 2600 1440 2600 c 0
 1616.73144531 2600 1760 2456.73144531 1760 2280 c 0
 1760 2103.26953125 1616.73144531 1960 1440 1960 c 0
 1263.26855469 1960 1120 2103.26953125 1120 2280 c 0
1717.12792969 2440 m 0
 1520 2200 l 0
 1406.13964844 2290.72167969 1217.84179688 2320 1120 2320 c 0
 979.03125 2320 920 2160 920 1840 c 1
 360 1840 l 1
 360 2331.10644531 640 2640 1200 2640 c 0
 1480 2640 1649.15136719 2557.74023438 1717.12792969 2440 c 0
EndSplineSet
EndChar

StartChar: eth
Encoding: 240 240 284
Width: 2080
VWidth: 0
Flags: HW
LayerCount: 2
Fore
SplineSet
1038.33203125 280 m 1
 1038.33203125 -40 l 1
 509.059570312 -39.998046875 80 339.78125 80 920 c 0
 80 1500.21875 320 1880 880 1880 c 0
 1240 1880 1452.8203125 1600 1560 1200 c 0
 1583.671875 1111.65625 1411.1484375 1106.88183594 1400 1040 c 1
 1400 1320 1200 1560 1038.33203125 1560 c 0
 811.412109375 1560 674.284179688 1404.57128906 674.284179688 920 c 0
 674.284179688 435.428710938 811.419921875 280.000976562 1038.33203125 280 c 1
840 2480 m 1
 1200 2640 l 1
 1840 2160 2000 1760 2000 1080 c 0
 2000 280 1612.70019531 -45.7080078125 1038.328125 -45.7109375 c 1
 1038.328125 274.2890625 l 1
 1262.71191406 274.291015625 1398.3203125 508.120117188 1398.3203125 1237.140625 c 0
 1398.3203125 1966.16113281 1120 2320 840 2480 c 1
1888.97558594 2560 m 5
 1888.97558594 2228.7109375 l 5
 790.083984375 1934.265625 l 5
 790.083984375 2265.5546875 l 5
 1888.97558594 2560 l 5
EndSplineSet
EndChar

StartChar: ae
Encoding: 230 230 285
Width: 3181
VWidth: 0
Flags: HW
LayerCount: 2
Fore
SplineSet
134.28515625 1400 m 0
 134.28515625 1576.73144531 277.553710938 1720 454.28515625 1720 c 0
 631.016601562 1720 774.28515625 1576.73144531 774.28515625 1400 c 0
 774.28515625 1223.26855469 631.016601562 1080 454.28515625 1080 c 0
 277.553710938 1080 134.28515625 1223.26855469 134.28515625 1400 c 0
1368.57226562 880 m 0
 1277.14355469 656.645507812 l 0
 1166.70410156 700.767578125 1057.6640625 722.286132812 937.280273438 722.286132812 c 0
 743.704101562 722.286132812 678.856445312 658.286132812 678.856445312 521.142578125 c 1
 80 521.142578125 l 1
 80 795.428710938 317.143554688 1001.14257812 656.188476562 1001.14257812 c 0
 1048.57226562 1001.14257812 1104.27246094 982.375976562 1368.57226562 880 c 0
1620 840 m 0
 1620 360 1503.81152344 -45.7138671875 860 -45.7138671875 c 0
 260 -45.7138671875 80 196.661132812 80 521.142578125 c 1
 678.856445312 521.142578125 l 1
 678.856445312 363.921875 723.624023438 274.286132812 915.192382812 274.286132812 c 0
 1061.13183594 274.286132812 1220 400 1277.14355469 656.645507812 c 0
 1620 840 l 0
1700 1000 m 1
 1220 320 l 1
 1220 1000 l 2
 1220 1520 1078.51953125 1566.04101562 865.715820312 1566.04101562 c 0
 774.284179688 1566.04101562 682.856445312 1520 682.856445312 1458.87988281 c 1
 228.01171875 1626.27441406 l 1
 348.48046875 1758.72949219 541.8515625 1880 988.364257812 1880 c 0
 1434.87597656 1880 1700 1600 1700 1000 c 1
3100 907.963867188 m 0
 2505.71582031 907.963867188 l 0
 2505.71582031 1383.39257812 2370.24414062 1557.99414062 2143.33203125 1560 c 0
 1916.41992188 1562.00585938 1777.61621094 1392.53613281 1777.61621094 907.963867188 c 0
 1777.61621094 423.392578125 1996.41992188 280.000976562 2223.33203125 280 c 0
 2516.31152344 279.999023438 2652.12011719 397.409179688 2742.52441406 612.571289062 c 1
 3008.57226562 521.142578125 l 1
 2891.84765625 201.142578125 2597.14355469 -52.0380859375 2141.6640625 -52.0361328125 c 0
 1612.39160156 -52.033203125 1380 339.78125 1380 920 c 0
 1380 1500.21875 1612.39160156 1879.99804688 2141.6640625 1880 c 0
 2670.93554688 1880.00195312 3100 1488.1875 3100 907.963867188 c 0
1484.85644531 1120 m 1
 2580 1120 l 1
 3101.60351562 907.96484375 l 1
 3076.91210938 800 l 1
 1484.85644531 800 l 1
 1484.85644531 1120 l 1
EndSplineSet
EndChar

StartChar: oe
Encoding: 339 339 286
Width: 3358
VWidth: 0
Flags: HW
LayerCount: 2
Fore
SplineSet
1038.33203125 1874.28613281 m 0
 1567.60449219 1874.28808594 1794.28417969 1494.50878906 1794.28417969 914.286132812 c 0
 1794.28417969 334.0625 1567.60449219 -45.716796875 1038.33203125 -45.7138671875 c 0
 509.060546875 -45.7119140625 80 334.06640625 80 914.286132812 c 0
 80 1494.50488281 509.060546875 1874.28320312 1038.33203125 1874.28613281 c 0
1038.33203125 1554.28613281 m 0
 811.419921875 1556.29101562 674.284179688 1398.85742188 674.284179688 914.286132812 c 0
 674.284179688 429.71484375 811.419921875 274.287109375 1038.33203125 274.286132812 c 0
 1265.24023438 274.28515625 1394.28417969 438.857421875 1394.28417969 914.286132812 c 0
 1394.28417969 1389.71484375 1265.24023438 1552.28027344 1038.33203125 1554.28613281 c 0
3276.66796875 907.963867188 m 0
 2682.38378906 907.963867188 l 0
 2682.38378906 1383.39257812 2546.91210938 1557.99414062 2320 1560 c 0
 2093.08789062 1562.00585938 1954.28417969 1392.53613281 1954.28417969 907.963867188 c 0
 1954.28417969 423.392578125 2173.08789062 280.000976562 2400 280 c 0
 2692.98046875 279.999023438 2828.78808594 397.409179688 2919.19238281 612.571289062 c 1
 3185.24023438 521.142578125 l 1
 3068.51660156 201.142578125 2773.8125 -52.0380859375 2318.33203125 -52.0361328125 c 0
 1789.06054688 -52.033203125 1556.66796875 339.78125 1556.66796875 920 c 0
 1556.66796875 1500.21875 1789.06054688 1879.99804688 2318.33203125 1880 c 0
 2847.60449219 1880.00195312 3276.66796875 1488.1875 3276.66796875 907.963867188 c 0
1661.52441406 1120 m 1
 2756.66796875 1120 l 1
 3278.27246094 907.96484375 l 1
 3253.58007812 800 l 1
 1661.52441406 800 l 1
 1661.52441406 1120 l 1
EndSplineSet
EndChar

StartChar: germandbls
Encoding: 223 223 287
Width: 2360
VWidth: 0
Flags: HW
LayerCount: 2
Fore
SplineSet
1200 2640 m 0
 1682.41601562 2640 2080 2400 2080 1920 c 0
 2080 1520 1753.57617188 1400 1480 1400 c 2
 1000 1400 l 1
 1000 1600 l 1
 1200 1600 l 2
 1400 1600 1480 1760 1480 1960 c 0
 1480 2240 1400 2360 1200 2360 c 0
 1028.04003906 2360 840 2200 840 2000 c 2
 840 0 l 1
 80 0 l 1
 80 320 l 1
 280 320 l 1
 280 1840 l 2
 280 2440 720 2640 1200 2640 c 0
1446.21972656 1480 m 2
 2054.82421875 1468.79199219 2280 1175 2280 720 c 0
 2280 240 2040 -40 1560 -40 c 0
 1160 -40 920 160 920 640 c 1
 1240 560 l 1
 1240 360 1320 280 1440 280 c 0
 1514.86425781 280 1680 360 1680 720 c 0
 1680 1120 1480 1280 1240 1280 c 2
 1000 1280 l 1
 1000 1480 l 1
 1446.21972656 1480 l 2
1560 640 m 0
 1560 463.268554688 1416.73144531 320 1240 320 c 0
 1063.26855469 320 920 463.268554688 920 640 c 0
 920 816.731445312 1063.26855469 960 1240 960 c 0
 1416.73144531 960 1560 816.731445312 1560 640 c 0
EndSplineSet
EndChar

StartChar: uni0292
Encoding: 658 658 288
Width: 1920
VWidth: 0
Flags: HW
LayerCount: 2
Fore
SplineSet
1046.21972656 863.125 m 4
 1654.91210938 867.5 1840 535 1840 80 c 4
 1840 -520 1512.15234375 -800 832.15234375 -800 c 4
 312.15234375 -800 192.484375 -629.856445312 117.51171875 -500 c 5
 533.744140625 -406.958007812 l 5
 555.248046875 -440.685546875 696.799804688 -480 832.15234375 -480 c 4
 973.120117188 -480 1240 -400 1240 0 c 4
 1240 475.428710938 1080 600 400 520 c 5
 758.328125 840 l 5
 863.536132812 855 959.263671875 862.5 1046.21972656 863.125 c 4
640 -360 m 4
 640 -514.639648438 514.639648438 -640 360 -640 c 4
 205.360351562 -640 80 -514.639648438 80 -360 c 4
 80 -205.360351562 205.360351562 -80 360 -80 c 4
 514.639648438 -80 640 -205.360351562 640 -360 c 4
120 1840 m 5
 1720 1840 l 5
 1720 1656 l 5
 1042.38378906 800 l 5
 400 520 l 5
 400 520 l 5
 400 680 l 5
 886.952148438 1360 l 6
 924.024414062 1411.76855469 960.67578125 1462.34765625 1008 1520 c 5
 440 1520 l 5
 440 1040 l 5
 120 1040 l 5
 120 1840 l 5
EndSplineSet
EndChar

StartChar: thorn
Encoding: 254 254 289
Width: 4096
VWidth: 0
Flags: HW
LayerCount: 2
Fore
SplineSet
13000 2480 m 5
 13760 2480 l 5
 13760 -320 l 5
 13960 -320 l 5
 13960 -640 l 5
 13000 -640 l 5
 13000 -320 l 5
 13200 -320 l 5
 13200 2160 l 5
 13000 2160 l 5
 13000 2480 l 5
14372.0644531 1880 m 4
 14847.9199219 1880 15090.8642578 1507.35742188 15090.8642578 919.392578125 c 4
 15090.8642578 331.428710938 14753.5517578 -40.3486328125 14293.7597656 -40.3486328125 c 4
 13900.2236328 -40.3486328125 13723.5595703 202.568359375 13657.3037109 294.928710938 c 5
 13640 720 l 5
 13684.4716797 932.142578125 l 5
 13704.3476562 648.192382812 13827.8720703 331.428710938 14099.0439453 331.428710938 c 4
 14370.2158203 331.428710938 14489.4716797 557.329101562 14489.4716797 926.463867188 c 4
 14489.4716797 1295.59960938 14309.1679688 1520 14111.8203125 1520 c 4
 13914.4755859 1520 13799.4716797 1355.234375 13681.6318359 1095.41992188 c 5
 13760 1520 l 5
 13667.3115234 1260.72363281 l 5
 13699.4355469 1519.99902344 13896.2080078 1880 14372.0644531 1880 c 4
EndSplineSet
EndChar

StartChar: periodcentered
Encoding: 183 183 290
Width: 800
VWidth: 0
Flags: HW
LayerCount: 2
Fore
SplineSet
400 1240 m 4
 576.639648438 1240 720 1096.63964844 720 920 c 4
 720 743.360351562 576.639648438 600 400 600 c 4
 223.360351562 600 80 743.360351562 80 920 c 4
 80 1096.63964844 223.360351562 1240 400 1240 c 4
EndSplineSet
EndChar

StartChar: bullet
Encoding: 8226 8226 291
Width: 1280
VWidth: 0
Flags: HW
LayerCount: 2
Fore
SplineSet
640 1480 m 4
 949.120117188 1480 1200 1229.12011719 1200 920 c 4
 1200 610.879882812 949.120117188 360 640 360 c 4
 330.879882812 360 80 610.879882812 80 920 c 4
 80 1229.12011719 330.879882812 1480 640 1480 c 4
EndSplineSet
EndChar

StartChar: uni0251
Encoding: 593 593 292
Width: 2250
VWidth: 0
Flags: HW
LayerCount: 2
Fore
SplineSet
1396.06445312 297.561523438 m 5
 1410.86816406 320 l 5
 1410.86816406 1520 l 5
 1490.86816406 1520 l 5
 1705.72851562 1840 l 5
 1970.86816406 1840 l 5
 1970.86816406 320 l 5
 2170.86816406 320 l 5
 2170.86816406 0 l 5
 1550.15625 0 l 5
 1396.06445312 297.561523438 l 5
798.803710938 -40 m 4
 322.948242188 -40 80 332.642578125 80 920.607421875 c 4
 80 1508.57128906 417.31640625 1880.34765625 877.108398438 1880.34765625 c 4
 1270.64453125 1880.34765625 1447.30371094 1637.43164062 1513.56445312 1545.07128906 c 5
 1530.86816406 920 l 5
 1486.39648438 907.857421875 l 5
 1466.52050781 1191.80761719 1342.99609375 1508.57128906 1071.82421875 1508.57128906 c 4
 800.65234375 1508.57128906 681.396484375 1282.67089844 681.396484375 913.53515625 c 4
 681.396484375 544.400390625 861.700195312 320 1059.04785156 320 c 4
 1256.39257812 320 1371.39648438 484.765625 1489.23632812 744.580078125 c 5
 1410.86816406 320 l 5
 1503.55664062 579.276367188 l 5
 1471.43261719 320.000976562 1274.66015625 -40 798.803710938 -40 c 4
EndSplineSet
EndChar

StartChar: uni1E9E
Encoding: 7838 7838 293
Width: 2840
VWidth: 0
Flags: HW
LayerCount: 2
Fore
SplineSet
1600 2520 m 0
 2116.61230469 2520 2332.24414062 2274.21972656 2520.28808594 1952.4375 c 1
 1883.65234375 1528.01171875 l 1
 1414.74023438 1602.87109375 l 1
 2059.28417969 2029.6953125 l 1
 1960.62011719 2155.29296875 1833.56347656 2200 1640 2200 c 0
 1440 2200 1040 2087.35546875 1040 1560 c 2
 1040 320 l 1
 400 320 l 1
 400 1560 l 2
 400 2200 840 2520 1600 2520 c 0
80 0 m 1
 80 320 l 1
 1040 320 l 1
 1040 0 l 1
 80 0 l 1
1414.74023438 1602.87109375 m 1
 1974.46386719 1791 l 1
 2120 1280 2800 1360 2800 720 c 0
 2800 279.830078125 2440 -40 1960 -40 c 0
 1680 -40 1200 131.478515625 1200 640 c 1
 1520 640 l 1
 1520 400 1640 280 1840 280 c 0
 2040 280 2160 360 2160 560 c 0
 2160 1158.21386719 1680 880 1414.74023438 1602.87109375 c 1
1840.01171875 640 m 0
 1840.01171875 463.26953125 1696.74316406 320 1520.01171875 320 c 0
 1343.28125 320 1200.01171875 463.26953125 1200.01171875 640 c 0
 1200.01171875 816.731445312 1343.28125 960 1520.01171875 960 c 0
 1696.74316406 960 1840.01171875 816.731445312 1840.01171875 640 c 0
EndSplineSet
EndChar

StartChar: AE
Encoding: 198 198 294
Width: 3900
VWidth: 0
Flags: HW
LayerCount: 2
Fore
SplineSet
1160 2480 m 1
 3720 2480 l 1
 3720 1680 l 1
 3360 1680 l 1
 3360 1840 l 2
 3360 1959.25683594 3320 2160 3200 2160 c 2
 2520 2160 l 1
 2520 1280 l 1
 2880 1280 l 1
 2880 1640 l 1
 3200 1640 l 1
 3200 600 l 1
 2880 600 l 1
 2880 960 l 1
 2520 960 l 1
 2520 320 l 1
 3240 320 l 2
 3360 320 3400 520.743164062 3400 640 c 2
 3400 800 l 1
 3760 800 l 1
 3760 0 l 1
 1560 0 l 1
 1560 320 l 1
 1880 320 l 1
 1880 2160 l 1
 1160 2160 l 1
 1160 2480 l 1
40 320 m 5
 40 0 l 1
 1320 0 l 1
 1320 320 l 5
 40 320 l 5
760 640 m 1
 760 960 l 1
 2000 960 l 1
 2000 640 l 1
 760 640 l 1
360.002929688 320 m 1
 1560.00292969 2480 l 1
 2000.00292969 2480 l 1
 800.002929688 320 l 1
 360.002929688 320 l 1
EndSplineSet
EndChar

StartChar: uni01B7
Encoding: 439 439 295
Width: 2156
VWidth: 0
Flags: HW
LayerCount: 2
Fore
SplineSet
100 2480 m 5
 2020 2480 l 5
 2020 2240 l 5
 1383.95996094 1400 l 5
 943.959960938 1336.125 l 5
 677.395507812 1280 l 5
 677.395507812 1440 l 5
 1217.80371094 2160 l 5
 620 2160 l 6
 500 2160 460 1959.25683594 460 1840 c 6
 460 1680 l 5
 100 1680 l 5
 100 2480 l 5
940 1280 m 6
 677.395507812 1280 l 5
 1220 1560 l 5
 1900 1560 2096.04003906 1160 2096.04003906 720 c 4
 2096.04003906 279.830078125 1740 -40 1020 -40 c 4
 500 -40 60 131.478515625 60 640 c 5
 380 640 l 5
 380 400 500 280 900 280 c 4
 1260 280 1456.04003906 482.856445312 1456.04003906 682.856445312 c 4
 1456.04003906 936.077148438 1380 1280 940 1280 c 6
700.01171875 640 m 4
 700.01171875 463.26953125 556.743164062 320 380.01171875 320 c 4
 203.28125 320 60.01171875 463.26953125 60.01171875 640 c 4
 60.01171875 816.731445312 203.28125 960 380.01171875 960 c 4
 556.743164062 960 700.01171875 816.731445312 700.01171875 640 c 4
EndSplineSet
EndChar

StartChar: OE
Encoding: 338 338 296
Width: 4000
VWidth: 0
Flags: HW
LayerCount: 2
Fore
SplineSet
1400 2520 m 4
 2254.11621094 2520 2320 1880 2320 1240 c 4
 2320 600 2254.11621094 -40 1400 -40 c 4
 545.883789062 -40 80 600 80 1240 c 4
 80 1880 545.883789062 2520 1400 2520 c 4
1400 2200 m 4
 987.5 2200 800 1767.35546875 800 1240 c 4
 800 712.64453125 1000.59179688 280 1400 280 c 4
 1799.40820312 280 2000 712.64453125 2000 1240 c 4
 2000 1767.35546875 1812.5 2200 1400 2200 c 4
2000 2480 m 5
 3840 2480 l 5
 3840 1680 l 5
 3480 1680 l 5
 3480 1840 l 6
 3480 1959.25683594 3440 2160 3320 2160 c 6
 2640 2160 l 5
 2640 1280 l 5
 3000 1280 l 5
 3000 1640 l 5
 3320 1640 l 5
 3320 600 l 5
 3000 600 l 5
 3000 960 l 5
 2640 960 l 5
 2640 320 l 5
 3360 320 l 6
 3480 320 3520 520.743164062 3520 640 c 6
 3520 800 l 5
 3880 800 l 5
 3880 0 l 5
 2000 0 l 5
 2000 2480 l 5
EndSplineSet
EndChar

StartChar: paragraph
Encoding: 182 182 297
Width: 2320
VWidth: 0
Flags: HW
LayerCount: 2
Fore
SplineSet
1040 2480 m 6
 2240 2480 l 5
 2240 2160 l 5
 2000 2160 l 5
 2000 -640 l 5
 1680 -640 l 5
 1680 2160 l 5
 1440 2160 l 5
 1440 -640 l 5
 1120 -640 l 5
 1120 640 l 5
 1040 640 l 6
 480 640 80 1000 80 1560 c 4
 80 2120 480 2480 1040 2480 c 6
EndSplineSet
EndChar

StartChar: Thorn
Encoding: 222 222 298
Width: 2479
VWidth: 0
Flags: HW
LayerCount: 2
Fore
SplineSet
80 2480 m 5
 1440 2480 l 5
 1440 2160 l 5
 1039.9921875 2160 l 5
 1039.9921875 2000 l 5
 1119.9921875 2000 l 6
 1839.9921875 2000 2039.9921875 1944 2223.9921875 1760 c 4
 2342.74414062 1641.25 2399.9921875 1454.34082031 2399.9921875 1260 c 4
 2399.9921875 680 1869.81640625 480 1199.9921875 480 c 6
 1039.9921875 480 l 5
 1039.9921875 320 l 5
 1440 320 l 5
 1440 0 l 5
 80 0 l 5
 80 320 l 5
 399.9921875 320 l 5
 399.9921875 2160 l 5
 80 2160 l 5
 80 2480 l 5
1039.9921875 1680 m 5
 1039.9921875 800 l 5
 1199.9921875 800 l 6
 1560 800 1679.9921875 980 1679.9921875 1240 c 4
 1679.9921875 1480 1599.9921875 1680 1279.9921875 1680 c 6
 1039.9921875 1680 l 5
EndSplineSet
EndChar

StartChar: Eth
Encoding: 208 208 299
Width: 2840
VWidth: 0
Flags: HW
LayerCount: 2
Fore
SplineSet
100 1280 m 5
 1540 1280 l 5
 1540 960 l 5
 100 960 l 5
 100 1280 l 5
EndSplineSet
Refer: 36 68 N 1 0 0 1 0 0 2
EndChar

StartChar: Tbar
Encoding: 358 358 300
Width: 2520
VWidth: 0
Flags: HW
LayerCount: 2
Fore
SplineSet
500 1280 m 1
 1980 1280 l 1
 1980 960 l 1
 500 960 l 1
 500 1280 l 1
EndSplineSet
Refer: 52 84 N 1 0 0 1 0 0 3
EndChar

StartChar: tbar
Encoding: 359 359 301
Width: 1560
VWidth: 0
Flags: HW
LayerCount: 2
Fore
SplineSet
80 1280 m 5
 1400 1280 l 5
 1400 960 l 5
 80 960 l 5
 80 1280 l 5
EndSplineSet
Refer: 92 116 N 1 0 0 1 0 0 3
EndChar

StartChar: Lslash
Encoding: 321 321 303
Width: 2340
VWidth: 0
Flags: HW
LayerCount: 2
Fore
SplineSet
1288.97558594 1320 m 5
 1288.97558594 988.7109375 l 5
 190.083984375 694.265625 l 5
 190.083984375 1025.5546875 l 5
 1288.97558594 1320 l 5
EndSplineSet
Refer: 44 76 N 1 0 0 1 0 0 3
EndChar

StartChar: lslash
Encoding: 322 322 304
Width: 1120
VWidth: 0
Flags: HW
LayerCount: 2
Fore
SplineSet
1008.97558594 1280 m 1
 1008.97558594 948.7109375 l 1
 110.083984375 694.265625 l 1
 110.083984375 1025.5546875 l 1
 1008.97558594 1280 l 1
EndSplineSet
Refer: 90 108 N 1 0 0 1 0 0 3
EndChar

StartChar: Euro
Encoding: 8364 8364 305
Width: 2785
VWidth: 0
Flags: HW
LayerCount: 2
Fore
SplineSet
1605.74414062 2520 m 0
 1963.86035156 2520 2246.77246094 2417.20019531 2445.74414062 2240 c 0
 2611.28417969 2092.578125 2685.74414062 1960 2685.74414062 1720 c 1
 2205.74414062 1800 l 1
 2124.62011719 2108.02539062 1934.46386719 2200 1645.74414062 2200 c 0
 1233.24414062 2200 1005.74414062 1767.35546875 1005.74414062 1240 c 0
 1005.74414062 712.64453125 1286.3359375 280 1685.74414062 280 c 0
 2028.91210938 280 2317.23632812 575.583007812 2365.74414062 1000 c 1
 2685.74414062 920 l 1
 2578.78027344 398.53515625 2319.87988281 -40 1605.74414062 -40 c 0
 751.627929688 -40 285.744140625 600 285.744140625 1240 c 0
 285.744140625 1880 751.627929688 2520 1605.74414062 2520 c 0
2045.74804688 1720 m 0
 2045.74804688 1896.73144531 2189.01660156 2040 2365.74804688 2040 c 0
 2542.47949219 2040 2685.74804688 1896.73144531 2685.74804688 1720 c 0
 2685.74804688 1543.26855469 2542.47949219 1400 2365.74804688 1400 c 0
 2189.01660156 1400 2045.74804688 1543.26855469 2045.74804688 1720 c 0
1751.29980469 1680 m 1
 1665.55566406 1359.99902344 l 1
 80 1360.00097656 l 1
 165.744140625 1680.00195312 l 1
 1751.29980469 1680 l 1
1622.68457031 1200.00097656 m 1
 1536.94042969 880 l 1
 80 880.001953125 l 1
 165.744140625 1200.00292969 l 1
 1622.68457031 1200.00097656 l 1
EndSplineSet
EndChar

StartChar: sterling
Encoding: 163 163 306
Width: 2360
VWidth: 0
Flags: HW
LayerCount: 2
Fore
SplineSet
320 160 m 1
 280 0 l 1
 120 320 l 1
 360 480 480 640 480 880 c 0
 480 1200 361.448242188 1360 360 1720 c 0
 358.01953125 2211.10253906 760 2520 1320 2520 c 0
 1680 2520 2200 2301.82226562 2200 1840 c 1
 1880 1840 l 1
 1880 2080 1680 2200 1440 2200 c 0
 1240 2200 1000 2040 1000 1720 c 0
 1000 1520 1040 1400.171875 1040 1240 c 0
 1040 840 680 360 320 160 c 1
1560 1840 m 0
 1560 2016.73144531 1703.26855469 2160 1880 2160 c 0
 2056.73144531 2160 2200 2016.73144531 2200 1840 c 0
 2200 1663.26855469 2056.73144531 1520 1880 1520 c 0
 1703.26855469 1520 1560 1663.26855469 1560 1840 c 0
200 240 m 0
 623.427734375 577.930664062 960 640 1240 640 c 0
 1520 640 1640 480 1760 480 c 0
 1920 480 1960 501.8828125 1960 800 c 1
 2280 800 l 1
 2280 200 2200 0 1760 0 c 0
 1360 0 1320 200 1040 200 c 0
 760 200 498.715820312 150.966796875 280 0 c 0
 200 240 l 0
1400 1680 m 1
 1314.25585938 1359.99902344 l 1
 80 1360.00097656 l 1
 165.744140625 1680.00195312 l 1
 1400 1680 l 1
1400 1200.00097656 m 1
 1314.25585938 880 l 1
 80 880.001953125 l 1
 165.744140625 1200.00292969 l 1
 1400 1200.00097656 l 1
EndSplineSet
EndChar

StartChar: yen
Encoding: 165 165 307
Width: 2840
VWidth: 0
Flags: HW
LayerCount: 2
Fore
SplineSet
80 2480 m 1
 1360 2480 l 1
 1360 2160 l 1
 80 2160 l 1
 80 2480 l 1
1680 2480 m 1
 2760 2480 l 1
 2760 2160 l 1
 1680 2160 l 1
 1680 2480 l 1
2221.20214844 2348.21484375 m 1
 2479.99804688 2160 l 1
 1614.83007812 970.39453125 l 1
 1356.03417969 1158.609375 l 1
 2221.20214844 2348.21484375 l 1
1134.54785156 1040 m 1
 320 2160 l 1
 1111.359375 2160 l 1
 1652.13183594 1416.4296875 l 1
 1134.54785156 1040 l 1
1076.03613281 1320 m 1
 1716.03613281 1320 l 1
 1716.03613281 320 l 1
 2036.03613281 320 l 1
 2036.03613281 0 l 1
 756.036132812 0 l 1
 756.036132812 320 l 1
 1076.03613281 320 l 1
 1076.03613281 1320 l 1
2254.54785156 1320 m 1
 2168.80371094 999.999023438 l 1
 494.547851562 1000.00097656 l 1
 580.291992188 1320.00195312 l 1
 2254.54785156 1320 l 1
2254.54785156 840.000976562 m 1
 2168.80371094 520 l 1
 494.547851562 520.001953125 l 1
 580.291992188 840.002929688 l 1
 2254.54785156 840.000976562 l 1
EndSplineSet
EndChar

StartChar: plusminus
Encoding: 177 177 308
Width: 1680
VWidth: 0
Flags: HW
LayerCount: 2
Fore
SplineSet
680 2240 m 5
 1000 2240 l 5
 1000 1640 l 5
 1600 1640 l 5
 1600 1320 l 5
 1000 1320 l 5
 1000 720 l 5
 680 720 l 5
 680 1320 l 5
 80 1320 l 5
 80 1640 l 5
 680 1640 l 5
 680 2240 l 5
80 560 m 5
 1600 560 l 5
 1600 240 l 5
 80 240 l 5
 80 560 l 5
EndSplineSet
EndChar

StartChar: fraction
Encoding: 8260 8260 309
Width: 1013
VWidth: 0
Flags: HW
LayerCount: 2
Fore
SplineSet
1200 1840 m 1
 1653 1840 l 1
 -187 0 l 1
 -640 0 l 1
 1200 1840 l 1
EndSplineSet
EndChar

StartChar: uni00B9
Encoding: 185 185 311
Width: 1360
VWidth: 0
Flags: HW
LayerCount: 2
Fore
SplineSet
560.008789062 2640 m 5
 960.008789062 2640 l 5
 960.008789062 1360 l 5
 1280.00878906 1360 l 5
 1280.00878906 1040 l 5
 80 1040 l 5
 80 1360 l 5
 400.008789062 1360 l 5
 400.008789062 2000 l 5
 80 2000 l 5
 80 2320 l 5
 160 2320 l 6
 320.008789062 2320 400.008789062 2362.87207031 560.008789062 2640 c 5
EndSplineSet
EndChar

StartChar: uni00B2
Encoding: 178 178 312
Width: 1760
VWidth: 0
Flags: HW
LayerCount: 2
Fore
SplineSet
80 2160 m 0
 80 2314.63964844 205.360351562 2440 360 2440 c 0
 514.639648438 2440 640 2314.63964844 640 2160 c 0
 640 2005.36035156 514.639648438 1880 360 1880 c 0
 205.360351562 1880 80 2005.36035156 80 2160 c 0
80 2160 m 0
 80 2440 400 2680 760 2680 c 0
 1459.94140625 2680 1680 2560 1680 2200 c 0
 1680 1760 600 1520 600 1360 c 1
 386.984375 1196.83007812 80 1040 80 1040 c 1
 80 1600 480 1800 840 1960 c 0
 971.791992188 2018.57421875 1120 2120 1120 2200 c 0
 1120 2320 1048.43554688 2360 760 2360 c 0
 520.487304688 2360 331.428710938 2160 400 2040 c 0
 80 2160 l 0
80 1040 m 1
 560 1440 l 1
 1320 1440 l 1
 1320 1680 l 1
 1680 1680 l 1
 1680 1040 l 1
 80 1040 l 1
EndSplineSet
EndChar

StartChar: uni00B3
Encoding: 179 179 313
Width: 1840
VWidth: 0
Flags: HW
LayerCount: 2
Fore
SplineSet
80 1520 m 0
 80 1674.63964844 205.360351562 1800 360 1800 c 0
 514.639648438 1800 640 1674.63964844 640 1520 c 0
 640 1365.36035156 514.639648438 1240 360 1240 c 0
 205.360351562 1240 80 1365.36035156 80 1520 c 0
80 1520 m 4
 520 1520 l 4
 480 1370.71777344 640.478515625 1320 879.991210938 1320 c 0
 1080 1320 1200 1360 1200 1560 c 0
 1200 1640 1160 1680 960 1680 c 2
 760 1680 l 1
 760 1880 l 1
 1159.99121094 1880 l 2
 1639.99121094 1880 1760 1760 1760 1520 c 0
 1760 1200 1560 1000 960 1000 c 0
 260.05859375 1000 80 1240 80 1520 c 4
120 2160 m 0
 120 2314.63964844 245.360351562 2440 400 2440 c 0
 554.639648438 2440 680 2314.63964844 680 2160 c 0
 680 2005.36035156 554.639648438 1880 400 1880 c 0
 245.360351562 1880 120 2005.36035156 120 2160 c 0
120 2160 m 0
 120 2440 320 2680 960 2680 c 0
 1520 2680 1720 2440 1720 2200 c 0
 1720 1960 1440 1840 1159.99121094 1840 c 2
 760 1840 l 1
 760 2000 l 1
 960 2000 l 2
 1160 2000 1160 2080 1160 2160 c 0
 1160 2320 1080 2360 879.991210938 2360 c 0
 640.478515625 2360 560 2309.28222656 600 2160 c 0
 120 2160 l 0
EndSplineSet
EndChar

StartChar: uni2074
Encoding: 8308 8308 314
Width: 1760
VWidth: 0
Flags: HW
LayerCount: 2
Fore
SplineSet
720 2640 m 5
 1280 2640 l 5
 1120.00878906 2240 800.008789062 1920 520.008789062 1760 c 5
 1000 1760 l 5
 1000 2040 l 5
 1120.00878906 2120 1200.00878906 2240 1240.00878906 2320 c 5
 1480.00878906 2320 l 5
 1480.00878906 1760 l 5
 1680.00878906 1760 l 5
 1680.00878906 1440 l 5
 1480.00878906 1440 l 5
 1480.00878906 1360 l 5
 1680.00878906 1360 l 5
 1680.00878906 1040 l 5
 640.008789062 1040 l 5
 640.008789062 1360 l 5
 1000 1360 l 5
 1000 1440 l 5
 80 1440 l 5
 80 1760 l 5
 360.008789062 2000 600.008789062 2320 720 2640 c 5
EndSplineSet
EndChar

StartChar: underscore
Encoding: 95 95 319
Width: 1680
VWidth: 0
Flags: HW
LayerCount: 2
Fore
SplineSet
80 -480 m 5
 1600 -480 l 5
 1600 -800 l 5
 80 -800 l 5
 80 -480 l 5
EndSplineSet
EndChar

StartChar: braceleft
Encoding: 123 123 320
Width: 1480
VWidth: 0
Flags: HW
LayerCount: 2
Fore
SplineSet
1000 2640 m 4
 1200 2640 1327.24414062 2612.02539062 1400 2560 c 5
 1312 2288 l 5
 1288.59570312 2311.24414062 1217.06835938 2320 1160 2320 c 4
 1067.01171875 2320 960 2200 960 2080 c 6
 960 1320 l 6
 960 1040 880 955.025390625 600 880 c 5
 600 760 l 5
 80 760 l 5
 80 1080 l 5
 200 1080 l 6
 334.4921875 1080 400 1176.171875 400 1280 c 6
 400 2040 l 6
 400 2400 680 2640 1000 2640 c 4
1000 -800 m 4
 680 -800 400 -560 400 -200 c 6
 400 560 l 6
 400 663.828125 334.4921875 760 200 760 c 6
 80 760 l 5
 80 1080 l 5
 600 1080 l 5
 600 960 l 5
 880 884.974609375 960 800 960 520 c 6
 960 -240 l 6
 960 -360 1067.01171875 -480 1160 -480 c 4
 1217.06835938 -480 1288.59570312 -471.244140625 1312 -448 c 5
 1400 -720 l 5
 1327.24414062 -772.025390625 1200 -800 1000 -800 c 4
EndSplineSet
EndChar

StartChar: currency
Encoding: 164 164 321
Width: 4096
VWidth: 0
Flags: HW
LayerCount: 2
Fore
SplineSet
14760 1892.85449219 m 4
 15201.5996094 1892.85449219 15560 1534.45507812 15560 1092.85449219 c 4
 15560 651.254882812 15201.5996094 292.854492188 14760 292.854492188 c 4
 14318.4003906 292.854492188 13960 651.254882812 13960 1092.85449219 c 4
 13960 1534.45507812 14318.4003906 1892.85449219 14760 1892.85449219 c 4
14760 1572.85449219 m 4
 14495.0400391 1572.85449219 14280 1357.81445312 14280 1092.85449219 c 4
 14280 827.89453125 14495.0400391 612.854492188 14760 612.854492188 c 4
 15024.9599609 612.854492188 15240 827.89453125 15240 1092.85449219 c 4
 15240 1357.81445312 15024.9599609 1572.85449219 14760 1572.85449219 c 4
15624 2224 m 4
 15756.5478516 2224 15864 2116.54785156 15864 1984 c 4
 15864 1917.72558594 15837.1357422 1857.72851562 15793.7041016 1814.296875 c 4
 15632.8320312 1653.421875 15511.1240234 1757.99023438 15313.1318359 1560 c 5
 15200 1560 l 5
 15200 1673.1328125 l 5
 15397.9921875 1871.12304688 15293.4199219 1992.828125 15454.2958984 2153.703125 c 4
 15497.7236328 2197.13476562 15557.7236328 2224 15624 2224 c 4
15864 256 m 4
 15864 123.452148438 15756.5478516 16 15624 16 c 4
 15557.7236328 16 15497.7275391 42.8642578125 15454.2958984 86.2958984375 c 4
 15293.4199219 247.16796875 15397.9882812 368.875976562 15200 566.868164062 c 5
 15200 680 l 5
 15313.1318359 680 l 5
 15511.1240234 482.0078125 15632.828125 586.580078125 15793.7041016 425.704101562 c 4
 15837.1357422 382.276367188 15864 322.276367188 15864 256 c 4
13896 16 m 4
 13763.4521484 16 13656 123.452148438 13656 256 c 4
 13656 322.274414062 13682.8642578 382.271484375 13726.2958984 425.703125 c 4
 13887.1679688 586.578125 14008.8759766 482.009765625 14206.8681641 680 c 5
 14320 680 l 5
 14320 566.8671875 l 5
 14122.0078125 368.876953125 14226.5800781 247.171875 14065.7041016 86.296875 c 4
 14022.2763672 42.865234375 13962.2763672 16 13896 16 c 4
13656 1984 m 4
 13656 2116.54785156 13763.4521484 2224 13896 2224 c 4
 13962.2763672 2224 14022.2724609 2197.13574219 14065.7041016 2153.70410156 c 4
 14226.5800781 1992.83203125 14122.0117188 1871.12402344 14320 1673.13183594 c 5
 14320 1560 l 5
 14206.8681641 1560 l 5
 14008.8759766 1757.9921875 13887.171875 1653.41992188 13726.2958984 1814.29589844 c 4
 13682.8642578 1857.72363281 13656 1917.72363281 13656 1984 c 4
EndSplineSet
EndChar

StartChar: uni20B7
Encoding: 8375 8375 322
Width: 3060
VWidth: 0
Flags: HW
LayerCount: 2
Fore
SplineSet
2080 2520 m 0
 2512.98046875 2520 2880 2293.6796875 2880 1840 c 1
 2560 1840 l 1
 2437.54003906 2007.36132812 l 1
 2437.54003906 2135.64160156 2296.31152344 2200 2200 2200 c 0
 2040 2200 1960 2120 1960 1920 c 0
 1960 1321.78417969 2912 1553.953125 2920 720 c 0
 2924.22363281 279.850585938 2440 -40 1880 -40 c 0
 800 -40 80 131.478515625 80 640 c 1
 400 640 l 1
 400 360 1040 280 1760 280 c 0
 2040 280 2280 360 2280 560 c 0
 2280 1158.21386719 1328 926.045898438 1320 1760 c 0
 1315.77636719 2200.14941406 1640 2520 2080 2520 c 0
2240 1840 m 0
 2240 2016.73144531 2383.26855469 2160 2560 2160 c 0
 2736.73144531 2160 2880 2016.73144531 2880 1840 c 0
 2880 1663.26855469 2736.73144531 1520 2560 1520 c 0
 2383.26855469 1520 2240 1663.26855469 2240 1840 c 0
472 1080 m 0
 716.66015625 1080 769.024414062 962.0546875 800 800 c 1
 720 800 l 1
 867.368164062 800 l 1
 876.904296875 750.096679688 878.31640625 696.151367188 872 640 c 2
 800 0 l 1
 480 0 l 1
 552 640 l 2
 561.068359375 720.594726562 520.971679688 760 472 760 c 0
 432 760 400 720 400 640 c 1
 80 640 l 1
 80 920 272 1080 472 1080 c 0
1000 1080 m 0
 1214.07617188 1080 1263.93164062 962.055664062 1280 800 c 1
 1240 800 l 1
 1354.69628906 800 l 1
 1359.64355469 750.096679688 1358.31640625 696.151367188 1352 640 c 2
 1280 0 l 1
 960 0 l 1
 1032 640 l 2
 1041.06835938 720.594726562 1000.97167969 760 952 760 c 0
 912 760 872 720 872 640 c 1
 720 760 l 1
 720 960 880 1080 1000 1080 c 0
1520 1080 m 0
 1800 1080 1858.83203125 878.49609375 1832 640 c 2
 1760 0 l 1
 1440 0 l 1
 1512 640 l 2
 1521.06835938 720.594726562 1480.97167969 760 1432 760 c 0
 1392 760 1352 720 1352 640 c 1
 1200 760 l 1
 1200 960 1400 1080 1520 1080 c 0
EndSplineSet
EndChar

StartChar: section
Encoding: 167 167 323
Width: 2200
VWidth: 0
Flags: HW
LayerCount: 2
Fore
SplineSet
1280 2240 m 0
 1280 2394.63964844 1405.36035156 2520 1560 2520 c 0
 1714.63964844 2520 1840 2394.63964844 1840 2240 c 0
 1840 2085.36035156 1714.63964844 1960 1560 1960 c 0
 1405.36035156 1960 1280 2085.36035156 1280 2240 c 0
1360 -280 m 0
 1360 -70.599609375 1083.60351562 -55.5732421875 824.774414062 24.4189453125 c 0
 400 155.696289062 80 440 80 880 c 0
 80 1280 320 1640 800 1800 c 1
 1000 1640 l 1
 800 1540 640 1259.75585938 640 1000 c 0
 640 680 760.6953125 489.794921875 1175.58496094 375.876953125 c 0
 1480.22753906 292.229492188 1880 221.974609375 1880 -200 c 0
 1880 -680 1480 -800 1002.41210938 -800 c 0
 600 -800 320 -640 320 -360 c 1
 320 -360 l 1
 800 -360 l 1
 840 -429.284179688 880 -480 1040 -480 c 0
 1320 -480 1360 -410.896484375 1360 -280 c 0
1400 80 m 0
 1200 280 l 0
 1440 400 1560 720 1560 960 c 0
 1560 1160 1360 1440 824.774414062 1584.41894531 c 0
 586.704101562 1648.65722656 360 1755.98046875 360 2080 c 0
 360 2560 760 2640 1157.58789062 2640 c 0
 1600 2640 1840 2440 1840 2240 c 1
 1360 2240 l 1
 1320 2309.28417969 1280 2360 1120 2360 c 0
 948.040039062 2360 840 2330.89648438 840 2200 c 0
 840 2048.22070312 989.176757812 1986.55664062 1175.58496094 1935.87695312 c 0
 1731.47753906 1784.74316406 2120 1480 2120 1080 c 0
 2120 449.083007812 1720 200 1400 80 c 0
320 -360 m 0
 320 -205.360351562 445.360351562 -80 600 -80 c 0
 754.639648438 -80 880 -205.360351562 880 -360 c 0
 880 -514.639648438 754.639648438 -640 600 -640 c 0
 445.360351562 -640 320 -514.639648438 320 -360 c 0
EndSplineSet
EndChar

StartChar: ordmasculine
Encoding: 186 186 324
Width: 1840
VWidth: 0
Flags: HW
LayerCount: 2
Fore
SplineSet
920 2520 m 4
 1383.92285156 2520.00195312 1760.00878906 2186.56445312 1760.00878906 1677.14257812 c 4
 1760.00878906 1167.72070312 1383.92285156 834.284179688 920 834.286132812 c 4
 456.08203125 834.288085938 80 1167.72460938 80 1677.14257812 c 4
 80 2186.56152344 456.08203125 2519.99804688 920 2520 c 4
920.000976562 2200 m 4
 745.475585938 2201.63867188 640 2073.02050781 640 1677.14257812 c 4
 640 1281.265625 745.475585938 1154.28710938 920.000976562 1154.28613281 c 4
 1094.52734375 1154.28515625 1200.00878906 1288.734375 1200.00878906 1677.14257812 c 4
 1200.00878906 2065.55078125 1094.52734375 2198.36132812 920.000976562 2200 c 4
EndSplineSet
EndChar

StartChar: ordfeminine
Encoding: 170 170 325
Width: 1840
VWidth: 0
Flags: HW
LayerCount: 2
Fore
SplineSet
194.28515625 2120 m 4
 194.28515625 2276.21777344 320.924804688 2402.85742188 477.142578125 2402.85742188 c 4
 633.360351562 2402.85742188 760 2276.21777344 760 2120 c 4
 760 1963.78222656 633.360351562 1837.14257812 477.142578125 1837.14257812 c 4
 320.924804688 1837.14257812 194.28515625 1963.78222656 194.28515625 2120 c 4
640 1761.140625 m 4
 985.265625 1761.140625 1138.03515625 1670.32910156 1271.20117188 1459.45996094 c 5
 1194.23632812 1338.78125 l 5
 1271.20117188 1218.109375 l 5
 1121.79394531 916.043945312 985.265625 840 640 840 c 4
 320 840 80 1000 80 1338.78125 c 4
 80 1640 320 1761.140625 640 1761.140625 c 4
891.703125 1515.77539062 m 4
 721.372070312 1515.77539062 640 1459.45507812 640 1338.78125 c 4
 640 1200.44042969 703.705078125 1121.57324219 872.26953125 1121.57324219 c 4
 997.799804688 1121.57324219 1139.14355469 1245.64648438 1187.51367188 1337.921875 c 5
 1127.16894531 1423.25195312 995.7578125 1515.77539062 891.703125 1515.77539062 c 4
1680 1845.12304688 m 6
 1680 1200 l 5
 1760 1200 l 5
 1760 880 l 5
 1297.14257812 880 l 5
 1160 1200 l 5
 1160 1903.68652344 l 6
 1160 2148.57128906 1092.80371094 2200 880 2200 c 4
 788.571289062 2200 730.456054688 2177.03613281 720 2160 c 6
 477.142578125 2040 l 5
 277.131835938 2320.01074219 l 5
 402.162109375 2445.04101562 579.580078125 2520 968.364257812 2520 c 4
 1414.87597656 2520 1680 2250.70507812 1680 1845.12304688 c 6
EndSplineSet
EndChar

StartChar: bar
Encoding: 124 124 326
Width: 600
VWidth: 0
Flags: HW
LayerCount: 2
Fore
SplineSet
460 -800 m 1
 140 -800 l 1
 140 2640 l 5
 460 2640 l 5
 460 -800 l 1
EndSplineSet
EndChar

StartChar: asciitilde
Encoding: 126 126 328
Width: 1736
VWidth: 0
Flags: HW
LayerCount: 2
Fore
SplineSet
480 1272 m 4
 660 1272 782 1167 897 1070 c 4
 954 1022 1005 981 1040 966 c 4
 1057 958 1069 957 1076 959 c 4
 1082 960 1088 963 1096 973 c 4
 1096 977 1096 980 1096 984 c 4
 1096 1138 1222 1264 1376 1264 c 4
 1530 1264 1656 1138 1656 984 c 4
 1656 876 1622 784 1553 720 c 4
 1484 656 1383 624 1256 624 c 4
 1076 624 954 729 839 826 c 4
 782 874 731 915 696 930 c 4
 679 938 667 939 660 937 c 4
 654 936 648 933 640 923 c 4
 640 919 640 916 640 912 c 4
 640 758 514 632 360 632 c 4
 206 632 80 758 80 912 c 4
 80 1020 114 1112 183 1176 c 4
 252 1240 353 1272 480 1272 c 4
EndSplineSet
EndChar

StartChar: brokenbar
Encoding: 166 166 331
Width: 600
VWidth: 0
Flags: HW
LayerCount: 2
Fore
SplineSet
460 -800 m 1
 140 -800 l 1
 140 720 l 1
 460 720 l 1
 460 -800 l 1
460 1120 m 1
 140 1120 l 1
 140 2640 l 1
 460 2640 l 1
 460 1120 l 1
EndSplineSet
EndChar

StartChar: f_f
Encoding: 64256 64256 332
Width: 2960
VWidth: 0
Flags: HW
LayerCount: 2
Fore
SplineSet
160 0 m 1
 160 320 l 1
 1280 320 l 1
 1280 0 l 1
 160 0 l 1
360 320 m 1
 360 1840 l 1
 920 1840 l 1
 920 320 l 1
 360 320 l 1
80 1520 m 1
 80 1840 l 1
 1520 1840 l 1
 1520 1520 l 1
 80 1520 l 1
1040 2280 m 0
 1040 2456.73144531 1183.26855469 2600 1360 2600 c 0
 1536.73144531 2600 1680 2456.73144531 1680 2280 c 0
 1680 2103.26953125 1536.73144531 1960 1360 1960 c 0
 1183.26855469 1960 1040 2103.26953125 1040 2280 c 0
1637.12792969 2440 m 0
 1142.70214844 2240 l 0
 1142.85351562 2280 1101.76171875 2320 1040 2320 c 0
 960 2320 920 2160 920 1840 c 1
 360 1840 l 1
 360 2331.10644531 560 2640 1120 2640 c 0
 1400 2640 1569.15136719 2557.74023438 1637.12792969 2440 c 0
1520 0 m 1
 1520 320 l 1
 2720 320 l 1
 2720 0 l 1
 1520 0 l 1
1720 320 m 1
 1720 1840 l 1
 2280 1840 l 1
 2280 320 l 1
 1720 320 l 1
1440 1520 m 1
 1440 1840 l 1
 2880 1840 l 1
 2880 1520 l 1
 1440 1520 l 1
2480 2280 m 0
 2480 2456.73144531 2623.26855469 2600 2800 2600 c 0
 2976.73144531 2600 3120 2456.73144531 3120 2280 c 0
 3120 2103.26953125 2976.73144531 1960 2800 1960 c 0
 2623.26855469 1960 2480 2103.26953125 2480 2280 c 0
3077.12792969 2440 m 0
 2880 2360 l 0
 2766.13964844 2450.72167969 2577.84179688 2320 2480 2320 c 0
 2339.03125 2320 2280 2160 2280 1840 c 1
 1720 1840 l 1
 1720 2331.10644531 2000 2640 2560 2640 c 0
 2840 2640 3009.15136719 2557.74023438 3077.12792969 2440 c 0
EndSplineSet
EndChar

StartChar: f_i
Encoding: 64257 64257 333
Width: 2480
VWidth: 0
Flags: HW
LayerCount: 2
Fore
SplineSet
1440 1840 m 1
 2200 1840 l 1
 2200 320 l 1
 2400 320 l 1
 2400 0 l 1
 1440 0 l 1
 1440 320 l 1
 1640 320 l 1
 1640 1520 l 1
 1440 1520 l 1
 1440 1840 l 1
160 0 m 1
 160 320 l 1
 1200 320 l 1
 1200 0 l 1
 160 0 l 1
360 320 m 1
 360 1840 l 1
 920 1840 l 1
 920 320 l 1
 360 320 l 1
80 1520 m 1
 80 1840 l 1
 1520 1840 l 1
 1520 1520 l 1
 80 1520 l 1
1520 2280 m 0
 1520 2456.73144531 1663.26855469 2600 1840 2600 c 0
 2016.73144531 2600 2160 2456.73144531 2160 2280 c 0
 2160 2103.26953125 2016.73144531 1960 1840 1960 c 0
 1663.26855469 1960 1520 2103.26953125 1520 2280 c 0
2117.12792969 2440 m 0
 1560 2240 l 0
 1560 2280 1457.84179688 2320 1360 2320 c 0
 1219.03125 2320 920 2160 920 1840 c 1
 360 1840 l 1
 360 2331.10644531 680 2640 1400 2640 c 0
 1880 2640 2024.75195312 2600 2117.12792969 2440 c 0
EndSplineSet
Ligature2: "'liga' +ahluljBuVAhbVwAA in +MOkwxjDzZYdbVwAA lookup 0-1" f i
EndChar

StartChar: f_dotlessi
Encoding: 57600 57600 334
Width: 2560
VWidth: 0
Flags: HW
AnchorPoint: "top" 2000 1920 basechar 0
LayerCount: 2
Fore
SplineSet
1520 1840 m 1
 2280 1840 l 1
 2280 320 l 1
 2480 320 l 1
 2480 0 l 1
 1520 0 l 1
 1520 320 l 1
 1720 320 l 1
 1720 1520 l 1
 1520 1520 l 1
 1520 1840 l 1
160 0 m 1
 160 320 l 1
 1280 320 l 1
 1280 0 l 1
 160 0 l 1
360 320 m 1
 360 1840 l 1
 920 1840 l 1
 920 320 l 1
 360 320 l 1
80 1520 m 1
 80 1840 l 1
 1520 1840 l 1
 1520 1520 l 1
 80 1520 l 1
840 2280 m 0
 840 2456.73144531 983.268554688 2600 1160 2600 c 0
 1336.73144531 2600 1480 2456.73144531 1480 2280 c 0
 1480 2103.26953125 1336.73144531 1960 1160 1960 c 0
 983.268554688 1960 840 2103.26953125 840 2280 c 0
1437.12792969 2440 m 0
 960 2240 l 0
 960.15234375 2280 896.76171875 2351 835 2351 c 0
 783.360222051 2351 733 2301 733 2174 c 3
 733 2038 920 1953.4408882 920 1840 c 1
 360 1840 l 1
 360 2331.10644531 400 2640 960 2640 c 0
 1240 2640 1369.15136719 2557.74023438 1437.12792969 2440 c 0
EndSplineSet
Ligature2: "'liga' +ahluljBuVAhbVwAA in +MOkwxjDzZYdbVwAA lookup 0-1" f dotlessi
EndChar

StartChar: f_j
Encoding: 57601 57601 335
Width: 2280
VWidth: 0
Flags: HW
LayerCount: 2
Fore
SplineSet
1440 1840 m 1
 2200 1840 l 1
 2200 0 l 2
 2200 -491.106445312 2000 -800 1440 -800 c 0
 1119.59277344 -800 1005.84472656 -729.856445312 930.872070312 -600 c 1
 1120 -520 l 1
 1233.86035156 -610.721679688 1422.15820312 -480 1520 -480 c 0
 1660.96875 -480 1640 -320 1640 0 c 2
 1640 1520 l 1
 1440 1520 l 1
 1440 1840 l 1
1528 -440 m 0
 1528 -616.731445312 1384.73144531 -760 1208 -760 c 0
 1031.26855469 -760 888 -616.731445312 888 -440 c 0
 888 -263.268554688 1031.26855469 -120 1208 -120 c 0
 1384.73144531 -120 1528 -263.268554688 1528 -440 c 0
160 0 m 1
 160 320 l 1
 1280 320 l 1
 1280 0 l 1
 160 0 l 1
360 320 m 1
 360 1840 l 1
 920 1840 l 1
 920 320 l 1
 360 320 l 1
80 1520 m 1
 80 1840 l 1
 1520 1840 l 1
 1520 1520 l 1
 80 1520 l 1
1520 2280 m 0
 1520 2456.73144531 1663.26855469 2600 1840 2600 c 0
 2016.73144531 2600 2160 2456.73144531 2160 2280 c 0
 2160 2103.26953125 2016.73144531 1960 1840 1960 c 0
 1663.26855469 1960 1520 2103.26953125 1520 2280 c 0
2117.12792969 2440 m 0
 1560 2240 l 0
 1560 2280 1457.84179688 2320 1360 2320 c 0
 1219.03125 2320 920 2160 920 1840 c 1
 360 1840 l 1
 360 2331.10644531 680 2640 1400 2640 c 0
 1880 2640 2024.75195312 2600 2117.12792969 2440 c 0
EndSplineSet
Ligature2: "'liga' +ahluljBuVAhbVwAA in +MOkwxjDzZYdbVwAA lookup 0-1" f j
EndChar

StartChar: f_h
Encoding: 57602 57602 336
Width: 3680
VWidth: 0
Flags: HW
LayerCount: 2
Fore
SplineSet
2800 1880 m 0
 3275.85644531 1880 3400 1560 3400 1080 c 2
 3400 320 l 1
 3600 320 l 1
 3600 0 l 1
 2640 0 l 1
 2640 320 l 1
 2840 320 l 1
 2840 1120 l 2
 2840 1440 2760 1520 2584 1520 c 0
 2440 1520 2279.47167969 1355.23632812 2161.63183594 1095.421875 c 1
 2147.31152344 1260.7265625 l 1
 2179.43554688 1520.00292969 2324.14355469 1880 2800 1880 c 0
EndSplineSet
Refer: 339 64258 S 1 0 0 1 0 0 2
Ligature2: "'liga' +ahluljBuVAhbVwAA in +MOkwxjDzZYdbVwAA lookup 0-1" f h
EndChar

StartChar: f_b
Encoding: 57603 57603 337
Width: 3450
VWidth: 0
Flags: HW
LayerCount: 2
Fore
SplineSet
160 0 m 5
 160 320 l 5
 1200 320 l 5
 1200 0 l 5
 160 0 l 5
80 1520 m 5
 80 1840 l 5
 1280 1840 l 5
 1280 1520 l 5
 80 1520 l 5
1200 2640 m 4
 1760 2640 1760 2480 2040 2480 c 5
 2040 320 l 5
 1960 320 l 5
 1745.13964844 0 l 5
 1480 0 l 5
 1480 2240 l 5
 1370.80761719 2289.76855469 1400 2320 1280 2320 c 4
 1080 2320 920 2160 920 1840 c 6
 920 160 l 5
 360 160 l 5
 360 1840 l 6
 360 2331.10644531 640 2640 1200 2640 c 4
2652.06445312 1880 m 4
 3127.91992188 1880 3370.86425781 1507.35742188 3370.86425781 919.392578125 c 4
 3370.86425781 331.428710938 3033.55175781 -40.34765625 2573.75976562 -40.34765625 c 4
 2180.22363281 -40.34765625 2003.55957031 202.568359375 1937.30371094 294.928710938 c 5
 1920 720 l 5
 1964.47167969 932.142578125 l 5
 1984.34765625 648.192382812 2107.87207031 331.428710938 2379.04394531 331.428710938 c 4
 2650.21582031 331.428710938 2769.47167969 557.329101562 2769.47167969 926.46484375 c 4
 2769.47167969 1295.59960938 2589.16796875 1520 2391.8203125 1520 c 4
 2194.47558594 1520 2079.47167969 1355.234375 1961.63183594 1095.41992188 c 5
 2040 1520 l 5
 1947.31152344 1260.72363281 l 5
 1979.43554688 1519.99902344 2176.20800781 1880 2652.06445312 1880 c 4
EndSplineSet
Ligature2: "'liga' +ahluljBuVAhbVwAA in +MOkwxjDzZYdbVwAA lookup 0-1" f b
EndChar

StartChar: f_k
Encoding: 57604 57604 338
Width: 3640
VWidth: 0
Flags: HW
LayerCount: 2
Fore
SplineSet
2600 320 m 1
 3560 320 l 1
 3560 0 l 1
 2600 0 l 1
 2600 320 l 1
2560 1520 m 1
 2560 1840 l 1
 3520 1840 l 1
 3520 1520 l 1
 2560 1520 l 1
3008.57226562 1760 m 1
 3394.28417969 1669.890625 l 1
 2665.71582031 869.8984375 l 1
 2280 960 l 1
 3008.57226562 1760 l 1
2280 960 m 5
 2807.97558594 1160 l 5
 3480 200 l 5
 2812.01953125 200 l 5
 2280 960 l 5
160 0 m 1
 160 320 l 1
 1200 320 l 1
 1200 0 l 1
 160 0 l 1
80 1520 m 1
 80 1840 l 1
 1360 1840 l 1
 1360 1520 l 1
 80 1520 l 1
1200 2640 m 0
 1760 2640 1920 2480 2200 2480 c 1
 2200 320 l 1
 2400 320 l 1
 2400 0 l 1
 1440 0 l 1
 1440 320 l 1
 1640 320 l 1
 1640 2240 l 1
 1530.80761719 2289.76855469 1400 2320 1280 2320 c 0
 1080 2320 920 2160 920 1840 c 2
 920 160 l 1
 360 160 l 1
 360 1840 l 2
 360 2331.10644531 640 2640 1200 2640 c 0
EndSplineSet
Ligature2: "'liga' +ahluljBuVAhbVwAA in +MOkwxjDzZYdbVwAA lookup 0-1" f k
EndChar

StartChar: f_l
Encoding: 64258 64258 339
Width: 2480
VWidth: 0
Flags: HW
LayerCount: 2
Fore
SplineSet
160 0 m 5
 160 320 l 5
 1200 320 l 5
 1200 0 l 5
 160 0 l 5
80 1520 m 5
 80 1840 l 5
 1360 1840 l 5
 1360 1520 l 5
 80 1520 l 5
1200 2640 m 4
 1760 2640 1920 2480 2200 2480 c 5
 2200 320 l 5
 2400 320 l 5
 2400 0 l 5
 1440 0 l 5
 1440 320 l 5
 1640 320 l 5
 1640 2240 l 5
 1530.80761719 2289.76855469 1400 2320 1280 2320 c 4
 1080 2320 920 2160 920 1840 c 6
 920 160 l 5
 360 160 l 5
 360 1840 l 6
 360 2331.10644531 640 2640 1200 2640 c 4
EndSplineSet
Ligature2: "'liga' +ahluljBuVAhbVwAA in +MOkwxjDzZYdbVwAA lookup 0-1" f l
EndChar

StartChar: f_f_l
Encoding: 64260 64260 341
Width: 3840
VWidth: 0
Flags: HW
LayerCount: 2
Fore
SplineSet
160 0 m 5
 160 320 l 5
 1280 320 l 5
 1280 0 l 5
 160 0 l 5
360 320 m 5
 360 1840 l 5
 920 1840 l 5
 920 320 l 5
 360 320 l 5
80 1520 m 5
 80 1840 l 5
 1520 1840 l 5
 1520 1520 l 5
 80 1520 l 5
1040 2280 m 4
 1040 2456.73144531 1183.26855469 2600 1360 2600 c 4
 1536.73144531 2600 1680 2456.73144531 1680 2280 c 4
 1680 2103.26953125 1536.73144531 1960 1360 1960 c 4
 1183.26855469 1960 1040 2103.26953125 1040 2280 c 4
1637.12792969 2440 m 4
 1142.70214844 2240 l 4
 1142.85351562 2280 1101.76171875 2320 1040 2320 c 4
 960 2320 920 2160 920 1840 c 5
 360 1840 l 5
 360 2331.10644531 560 2640 1120 2640 c 4
 1400 2640 1569.15136719 2557.74023438 1637.12792969 2440 c 4
EndSplineSet
Refer: 339 64258 N 1 0 0 1 1360 0 2
EndChar

StartChar: logicalnot
Encoding: 172 172 343
Width: 1680
VWidth: 0
Flags: HW
LayerCount: 2
Fore
SplineSet
80 1600 m 5
 1600 1600 l 5
 1600 880 l 5
 1280 880 l 5
 1280 1280 l 5
 80 1280 l 5
 80 1600 l 5
EndSplineSet
EndChar

StartChar: mu
Encoding: 181 181 344
Width: 2280
VWidth: 0
Flags: HW
LayerCount: 2
Fore
SplineSet
80 1840 m 1
 840 1840 l 1
 840 -320 l 1
 1040 -320 l 1
 1040 -640 l 1
 80 -640 l 1
 80 -320 l 1
 280 -320 l 1
 280 1520 l 1
 80 1520 l 1
 80 1840 l 1
800 40 m 0
 840 0 920 -40 1080 -40 c 0
 1320 -40 1400 40 1480 160 c 1
 1579.2890625 0 l 1
 2200 0 l 1
 2200 320 l 1
 2000 320 l 1
 2000 1840 l 1
 1240 1840 l 1
 1240 1520 l 1
 1440 1520 l 1
 1435.7109375 588.7578125 l 1
 1400 465.430664062 1232.56738281 320 1120 320 c 0
 944 320 840 480 840 800 c 0
 800 40 l 0
EndSplineSet
EndChar

StartChar: divide
Encoding: 247 247 345
Width: 1680
VWidth: 0
Flags: HW
LayerCount: 2
Fore
SplineSet
80 1400 m 5
 1600 1400 l 5
 1600 1080 l 5
 80 1080 l 5
 80 1400 l 5
600 1800 m 4
 600 1932.54882812 707.451171875 2040 840 2040 c 4
 972.548828125 2040 1080 1932.54882812 1080 1800 c 4
 1080 1667.45117188 972.548828125 1560 840 1560 c 4
 707.451171875 1560 600 1667.45117188 600 1800 c 4
600 680 m 4
 600 812.548828125 707.451171875 920 840 920 c 4
 972.548828125 920 1080 812.548828125 1080 680 c 4
 1080 547.451171875 972.548828125 440 840 440 c 4
 707.451171875 440 600 547.451171875 600 680 c 4
EndSplineSet
EndChar

StartChar: arrowup
Encoding: 8593 8593 346
Width: 2400
VWidth: 0
Flags: HW
LayerCount: 2
Fore
SplineSet
1200 2480 m 1
 1280 2467 l 1
 2280 1400 l 1
 2160 1240 l 1
 1336 1640 l 1
 1360 1160 1376 502 1376 -640 c 1
 1024 -640 l 1
 1024 502 1040 1160 1064 1640 c 1
 240 1240 l 1
 120 1400 l 1
 1120 2467 l 1
 1200 2480 l 1
EndSplineSet
EndChar

StartChar: uniFFFD
Encoding: 65533 65533 350
Width: 3280
VWidth: 0
Flags: HW
LayerCount: 2
Fore
SplineSet
1640 2480 m 0
 2501.56445312 2480 3200 1781.56445312 3200 920 c 0
 3200 58.435546875 2501.56445312 -640 1640 -640 c 0
 778.435546875 -640 80 58.435546875 80 920 c 0
 80 1781.56445312 778.435546875 2480 1640 2480 c 0
2242 2061.21875 m 0
 2044.59263921 2175.19151623 1867.38585808 2226.35600179 1704.21263295 2226.35600179 c 0
 1472.59603771 2226.35600179 1294.48134856 2113.06253052 1161.41601562 1942.4296875 c 0
 1109.6456381 1876.04363064 1069.03989832 1801.82335248 1069.03222113 1717.62008214 c 0
 1069.03222113 1540.91603032 1212.31967367 1397.6796875 1389.03222656 1397.6796875 c 0
 1565.71433085 1397.6796875 1709.0322601 1540.86825608 1709.0322601 1717.53167226 c 0
 1709.01621739 1788.3425863 1685.36379099 1857.02050894 1642.04003906 1912.96875 c 1
 1667.3308039 1918.58641238 1693.21925696 1921.28172366 1719.47003446 1921.28172366 c 0
 1804.53833462 1921.28172366 1893.41158335 1892.97692318 1978.08007812 1844.09375 c 0
 2127.19072057 1758.00569569 2186.0911461 1636.67222477 2186.0911461 1515.7185338 c 0
 2186.0911461 1439.97363806 2162.9924787 1364.3776786 2124.484375 1297.6796875 c 0
 1965.43708255 1022.20189451 1318.01014269 1165.61451702 1318.01014269 709.204104001 c 0
 1318.01014269 706.470164674 1318.03337313 703.714702991 1318.08007812 700.9375 c 1
 1491.28027344 600.9375 l 1
 1526.4866096 661.916547459 1612.7201215 673.556724752 1725.0901446 673.556724752 c 0
 1794.48284188 673.556724752 1873.84276304 669.117714047 1957.3081703 669.117714047 c 0
 2199.36884248 669.117714047 2475.95978844 706.453184548 2644.09960938 997.6796875 c 0
 2722.33203125 1133.18359375 2762.04785156 1261.47949219 2762.04785156 1383.2578125 c 0
 2762.04785156 1635.06542969 2592.23632812 1859.00976562 2242 2061.21875 c 0
1112 424 m 0
 935.267578125 424 792 280.731445312 792 104 c 0
 792 -72.7314453125 935.267578125 -216 1112 -216 c 0
 1288.73242188 -216 1432 -72.7314453125 1432 104 c 0
 1432 280.731445312 1288.73242188 424 1112 424 c 0
EndSplineSet
EndChar

StartChar: copyright
Encoding: 169 169 351
Width: 3280
VWidth: 0
Flags: HW
LayerCount: 2
Fore
SplineSet
1640 2480 m 4
 2504.24023438 2480 3200 1784.24023438 3200 920 c 4
 3200 55.759765625 2504.24023438 -640 1640 -640 c 4
 775.759765625 -640 80 55.759765625 80 920 c 4
 80 1784.24023438 775.759765625 2480 1640 2480 c 4
1640 2160 m 4
 953.040039062 2160 400 1606.95996094 400 920 c 4
 400 233.040039062 953.040039062 -320 1640 -320 c 4
 2326.95996094 -320 2880 233.040039062 2880 920 c 4
 2880 1606.95996094 2326.95996094 2160 1640 2160 c 4
1650.42773438 1880 m 4
 2085.28808594 1880.00195312 2422.82421875 1649.94726562 2521.19628906 1282.82226562 c 5
 2094.95605469 1240 l 5
 2014.95605469 1480 1981.40820312 1560 1720 1560 c 4
 1493.08007812 1560 1240 1404.57128906 1240 920 c 4
 1240 435.428710938 1510.90039062 292.040039062 1737.81152344 292.0390625 c 4
 2030.78808594 292.038085938 2174.95605469 480 2214.95605469 680 c 5
 2494.95605469 600 l 5
 2414.95605469 280 2111.62792969 -40.001953125 1656.1484375 -40 c 4
 1126.87597656 -39.998046875 760 339.78125 760 920 c 4
 760 1500.21875 1121.15625 1879.99804688 1650.42773438 1880 c 4
1892.22753906 1200.00195312 m 4
 1892.22753906 1376.73339844 2035.49609375 1520.00195312 2212.22753906 1520.00195312 c 5
 2214.07226562 1282.82226562 l 5
 2521.19628906 1282.82226562 l 5
 2528.47558594 1255.81640625 2532.18847656 1227.97265625 2532.22753906 1200.00195312 c 4
 2532.22753906 1023.27050781 2388.95996094 880.001953125 2212.22753906 880.001953125 c 4
 2035.49609375 880.001953125 1892.22753906 1023.27050781 1892.22753906 1200.00195312 c 4
EndSplineSet
EndChar

StartChar: registered
Encoding: 174 174 352
Width: 3280
VWidth: 0
Flags: HW
LayerCount: 2
Fore
SplineSet
1640 2480 m 4
 2504.24023438 2480 3200 1784.24023438 3200 920 c 4
 3200 55.759765625 2504.24023438 -640 1640 -640 c 4
 775.759765625 -640 80 55.759765625 80 920 c 4
 80 1784.24023438 775.759765625 2480 1640 2480 c 4
1640 2160 m 4
 953.040039062 2160 400 1606.95996094 400 920 c 4
 400 233.040039062 953.040039062 -320 1640 -320 c 4
 2326.95996094 -320 2880 233.040039062 2880 920 c 4
 2880 1606.95996094 2326.95996094 2160 1640 2160 c 4
840 1840 m 5
 1445.70800781 1520 l 5
 1440 320 l 5
 1520 320 l 5
 1520 0 l 5
 840 0 l 5
 840 320 l 5
 960 320 l 5
 960 1520 l 5
 840 1520 l 5
 840 1840 l 5
840 1840 m 5
 1600 1840 l 6
 2320 1840 2400 1560 2400 1240 c 4
 2400 880 2160 760 1520 760 c 6
 1280 760 l 5
 1280 1040 l 5
 1600 1040 l 6
 1880 1040 1920 1080 1920 1280 c 4
 1920 1480 1840 1520 1600 1520 c 6
 1440 1520 l 5
 840 1840 l 5
1472 720 m 6
 1352 720 l 5
 1352 920 l 5
 1632 920 l 6
 1912 920 2085.41992188 800 2112 480 c 4
 2122.47167969 353.943359375 2160 280 2200 280 c 4
 2240 280 2240 360 2240 440 c 6
 2240 560 l 5
 2520 560 l 5
 2520 440 l 6
 2520 240 2432 -40 2112 -40 c 4
 1760 -40 1687.62792969 40 1640 440 c 4
 1611.61230469 678.413085938 1552 720 1472 720 c 6
EndSplineSet
EndChar

StartChar: trademark
Encoding: 8482 8482 353
Width: 4720
VWidth: 0
Flags: HW
LayerCount: 2
Fore
SplineSet
2080 2480 m 5
 2880 2480 l 5
 3440 1600 l 5
 3922.92773438 2480 l 5
 4640 2480 l 5
 4640 2160 l 5
 4400 2160 l 5
 4400 960 l 5
 4640 960 l 5
 4640 640 l 5
 3680 640 l 5
 3680 960 l 5
 3920 960 l 5
 3920 1763.078125 l 5
 3400 960 l 5
 3200 960 l 5
 2720 1768.421875 l 5
 2720 960 l 5
 2960 960 l 5
 2960 640 l 5
 2080 640 l 5
 2080 960 l 5
 2320 960 l 5
 2320 2160 l 5
 2080 2160 l 5
 2080 2480 l 5
80 2480 m 5
 1840 2480 l 5
 1840 1680 l 5
 1520 1680 l 5
 1520 2160 l 5
 1200 2160 l 5
 1200 960 l 5
 1520 960 l 5
 1520 640 l 5
 400 640 l 5
 400 960 l 5
 720 960 l 5
 720 2160 l 5
 400 2160 l 5
 400 1680 l 5
 80 1680 l 5
 80 2480 l 5
EndSplineSet
EndChar

StartChar: figuredash
Encoding: 8210 8210 356
Width: 2240
VWidth: 0
Flags: HW
LayerCount: 2
Fore
SplineSet
160 1080 m 5
 160 1400 l 5
 2080 1400 l 5
 2080 1080 l 5
 160 1080 l 5
EndSplineSet
EndChar

StartChar: endash
Encoding: 8211 8211 357
Width: 2000
VWidth: 0
Flags: HW
LayerCount: 2
Fore
SplineSet
40 800 m 5
 40 1120 l 5
 1960 1120 l 5
 1960 800 l 5
 40 800 l 5
EndSplineSet
EndChar

StartChar: emdash
Encoding: 8212 8212 358
Width: 3200
VWidth: 0
Flags: HW
LayerCount: 2
Fore
SplineSet
40 800 m 1
 40 1120 l 1
 3160 1120 l 1
 3160 800 l 1
 40 800 l 1
EndSplineSet
EndChar

StartChar: guilsinglleft
Encoding: 8249 8249 366
Width: 1040
VWidth: 0
Flags: HW
LayerCount: 2
Fore
SplineSet
80 1160 m 5
 960 1600 l 1
 960 1040 l 1
 400 920 l 1
 960 800 l 1
 960 240 l 1
 80 680 l 5
 80 1160 l 5
EndSplineSet
EndChar

StartChar: degree
Encoding: 176 176 369
Width: 1520
VWidth: 0
Flags: HW
LayerCount: 2
Fore
SplineSet
760 2520 m 4
 1120 2520 1440 2350 1440 1840 c 4
 1440 1330 1120 1160 760 1160 c 4
 400 1160 80 1330 80 1840 c 4
 80 2350 400 2520 760 2520 c 4
760 2200 m 4
 640 2200 560 2140 560 1840 c 4
 560 1540 640 1480 760 1480 c 4
 880 1480 960 1540 960 1840 c 4
 960 2140 880 2200 760 2200 c 4
EndSplineSet
EndChar

StartChar: minus
Encoding: 8722 8722 371
Width: 1680
VWidth: 0
Flags: HW
LayerCount: 2
Fore
SplineSet
1600 1080 m 1
 80 1080 l 1
 80 1400 l 1
 1600 1400 l 1
 1600 1080 l 1
EndSplineSet
EndChar

StartChar: multiply
Encoding: 215 215 374
Width: 1680
VWidth: 0
Flags: HW
LayerCount: 2
Fore
SplineSet
1357.40136719 1983.67578125 m 1
 1583.67578125 1757.40136719 l 1
 1066.27441406 1240 l 1
 1583.67578125 722.598632812 l 1
 1357.40136719 496.32421875 l 1
 840 1013.72558594 l 1
 322.598632812 496.32421875 l 1
 96.32421875 722.598632812 l 1
 613.725585938 1240 l 1
 96.32421875 1757.40136719 l 1
 322.598632812 1983.67578125 l 1
 840 1466.27441406 l 1
 1357.40136719 1983.67578125 l 1
EndSplineSet
EndChar

StartChar: dcroat
Encoding: 273 273 376
Width: 2222
VWidth: 0
Flags: HW
AnchorPoint: "cedilla" 1124 80 basechar 0
AnchorPoint: "top" 1000 2560 basechar 0
LayerCount: 2
Fore
SplineSet
1220 1760 m 1
 1220 2080 l 1
 2140 2080 l 1
 2140 1760 l 1
 1220 1760 l 1
1182.29492188 2480 m 1
 1942.29492188 2480 l 1
 1942.29492188 320 l 1
 2142.29492188 320 l 1
 2142.29492188 0 l 1
 1548.00976562 0 l 1
 1382.29492188 320 l 1
 1382.29492188 2160 l 1
 1182.29492188 2160 l 1
 1182.29492188 2480 l 1
798.803710938 -45.7138671875 m 0
 322.947265625 -45.7138671875 80 332.643554688 80 920.607421875 c 0
 80 1508.57128906 394.114257812 1820.34863281 853.908203125 1820.34863281 c 0
 1247.44335938 1820.34863281 1376.83496094 1545.43164062 1443.09375 1453.07128906 c 1
 1694.29492188 1828.57128906 l 1
 1486.39355469 907.857421875 l 1
 1466.51660156 1111.80761719 1342.99414062 1448.57128906 1071.82128906 1448.57128906 c 4
 800.649414062 1448.57128906 681.392578125 1282.67089844 681.392578125 913.536132812 c 0
 681.392578125 544.400390625 861.700195312 320 1059.04492188 320 c 0
 1256.390625 320 1371.39355469 484.766601562 1489.23242188 744.581054688 c 1
 1942.29492188 320 l 1
 1554.66503906 579.27734375 l 1
 1532.55957031 400.872070312 1462.55859375 244.624023438 1338.6015625 132.977539062 c 0
 1214.64453125 21.3310546875 1036.73144531 -45.7138671875 798.803710938 -45.7138671875 c 0
EndSplineSet
EndChar

StartChar: Hbar
Encoding: 294 294 377
Width: 3040
VWidth: 0
Flags: HW
LayerCount: 2
Fore
SplineSet
100 1600 m 1
 100 1920 l 1
 2900 1920 l 5
 2900 1600 l 5
 100 1600 l 1
EndSplineSet
Refer: 40 72 N 1 0 0 1 0 0 2
EndChar

StartChar: hbar
Encoding: 295 295 378
Width: 2280
VWidth: 0
Flags: HW
LayerCount: 2
Fore
SplineSet
80 2480 m 1
 840 2480 l 1
 840 320 l 1
 1040 320 l 1
 1040 0 l 1
 80 0 l 1
 80 320 l 1
 280 320 l 1
 280 2160 l 1
 80 2160 l 1
 80 2480 l 1
1400 1860 m 4
 1875.85644531 1860 2000 1640 2000 1160 c 2
 2000 320 l 1
 2200 320 l 1
 2200 0 l 1
 1240 0 l 1
 1240 320 l 1
 1440 320 l 1
 1440 1120 l 2
 1440 1440 1360 1480 1184 1480 c 0
 1040 1480 879.471679688 1275.23632812 761.6328125 1015.421875 c 1
 747.3125 1180.7265625 l 1
 779.4375 1440.00292969 924.143554688 1860 1400 1860 c 4
80 1760 m 1
 80 2080 l 1
 1000 2080 l 1
 1000 1760 l 1
 80 1760 l 1
EndSplineSet
EndChar

StartChar: ij
Encoding: 307 307 380
Width: 2040
VWidth: 0
Flags: HW
LayerCount: 2
Fore
SplineSet
1360 2280 m 0
 1360 2457 1503 2600 1680 2600 c 0
 1857 2600 2000 2457 2000 2280 c 0
 2000 2103 1857 1960 1680 1960 c 0
 1503 1960 1360 2103 1360 2280 c 0
1200 1840 m 1
 1960 1840 l 1
 1960 0 l 2
 1960 -491.106445312 1600 -800 1040 -800 c 0
 559.592773438 -800 445.844726562 -729.856445312 370.872070312 -600 c 1
 780 -380 l 1
 893.860351562 -470.721679688 962.158203125 -480 1060 -480 c 0
 1240.96875 -480 1400 -320 1400 0 c 2
 1400 1520 l 1
 1200 1520 l 1
 1200 1840 l 1
968 -440 m 0
 968 -616.731445312 824.731445312 -760 648 -760 c 0
 471.268554688 -760 328 -616.731445312 328 -440 c 0
 328 -263.268554688 471.268554688 -120 648 -120 c 0
 824.731445312 -120 968 -263.268554688 968 -440 c 0
EndSplineSet
Refer: 75 105 N 1 0 0 1 0 0 2
EndChar

StartChar: ij_acute
Encoding: 57605 57605 381
Width: 2200
VWidth: 0
Flags: HW
LayerCount: 2
Fore
SplineSet
1200 1840 m 1
 1960 1840 l 1
 1960 0 l 2
 1960 -491.106445312 1600 -800 1040 -800 c 0
 559.592773438 -800 445.844726562 -729.856445312 370.872070312 -600 c 1
 780 -380 l 1
 893.860351562 -470.721679688 962.158203125 -480 1060 -480 c 0
 1240.96875 -480 1400 -320 1400 0 c 2
 1400 1520 l 1
 1200 1520 l 1
 1200 1840 l 1
968 -440 m 0
 968 -616.731445312 824.731445312 -760 648 -760 c 0
 471.268554688 -760 328 -616.731445312 328 -440 c 0
 328 -263.268554688 471.268554688 -120 648 -120 c 0
 824.731445312 -120 968 -263.268554688 968 -440 c 0
EndSplineSet
Refer: 83 180 N 1 0 0 1 1060 0 2
Refer: 136 237 N 1 0 0 1 0 0 2
Ligature2: "'liga' +ahluljBuVAhbVwAA in +MOkwxjDzZYdbVwAA lookup 0-1" ij acutecomb
Ligature2: "'liga' +ahluljBuVAhbVwAA in +MOkwxjDzZYdbVwAA lookup 0-1" ij acute
EndChar

StartChar: uniE109
Encoding: 57609 57609 385
Width: 2560
VWidth: 0
Flags: HW
LayerCount: 2
Fore
SplineSet
1820 2540 m 0
 1952.47949219 2540 2060 2432.47949219 2060 2300 c 0
 2060 2167.52050781 1952.47949219 2060 1820 2060 c 0
 1687.52050781 2060 1580 2167.52050781 1580 2300 c 0
 1580 2432.47949219 1687.52050781 2540 1820 2540 c 0
2380 2540 m 0
 2512.47949219 2540 2620 2432.47949219 2620 2300 c 0
 2620 2167.52050781 2512.47949219 2060 2380 2060 c 0
 2247.52050781 2060 2140 2167.52050781 2140 2300 c 0
 2140 2432.47949219 2247.52050781 2540 2380 2540 c 0
EndSplineSet
Refer: 334 57600 N 1 0 0 1 0 0 2
Ligature2: "'liga' +ahluljBuVAhbVwAA in +MOkwxjDzZYdbVwAA lookup 0-1" f idieresis
EndChar

StartChar: f_before_f
Encoding: 57614 57614 390
Width: 1360
VWidth: 0
Flags: HW
LayerCount: 2
Fore
SplineSet
160 0 m 1
 160 320 l 1
 1280 320 l 1
 1280 0 l 1
 160 0 l 1
360 320 m 1
 360 1840 l 1
 920 1840 l 1
 920 320 l 1
 360 320 l 1
80 1520 m 1
 80 1840 l 1
 1440 1840 l 1
 1440 1520 l 1
 80 1520 l 1
1040 2280 m 0
 1040 2456.73144531 1183.26855469 2600 1360 2600 c 0
 1413.23759247 2600 1463.43868965 2586.99950058 1507.60179066 2564.00000264 c 0
 1610.04578267 2510.64866794 1680 2403.49385284 1680 2280 c 0
 1680 2103.26953125 1536.73144531 1960 1360 1960 c 0
 1183.26855469 1960 1040 2103.26953125 1040 2280 c 0
1637.12792969 2440 m 0
 1142.70214844 2240 l 0
 1142.85351562 2280 1101.76171875 2320 1040 2320 c 0
 960 2320 920 2160 920 1840 c 1
 360 1840 l 1
 360 2331.10644531 560 2640 1120 2640 c 0
 1400 2640 1569.15136719 2557.74023438 1637.12792969 2440 c 0
EndSplineSet
EndChar

